<svg width="1363" height="163" viewBox="0 0 1363 163" fill="none" xmlns="http://www.w3.org/2000/svg">
<path d="M0 15C0 6.71573 6.71573 0 15 0H37V163H15C6.71573 163 0 156.284 0 148V15Z" fill="#424242"/>
<rect width="1097" height="163" transform="translate(37)" fill="#F0F0F0"/>
<path d="M101.906 53.9219L94.3945 51.2383V48.0859L104.602 52.375V54.6367L101.906 53.9219ZM94.3945 56.1719L101.918 53.4297L104.602 52.7852V55.0352L94.3945 59.3242V56.1719ZM119.895 43.9375V61H116.391V43.9375H119.895ZM125.145 43.9375V46.6914H111.223V43.9375H125.145ZM124.359 54.7891V54.543C124.359 53.6133 124.492 52.7578 124.758 51.9766C125.023 51.1875 125.41 50.5039 125.918 49.9258C126.426 49.3477 127.051 48.8984 127.793 48.5781C128.535 48.25 129.387 48.0859 130.348 48.0859C131.309 48.0859 132.164 48.25 132.914 48.5781C133.664 48.8984 134.293 49.3477 134.801 49.9258C135.316 50.5039 135.707 51.1875 135.973 51.9766C136.238 52.7578 136.371 53.6133 136.371 54.543V54.7891C136.371 55.7109 136.238 56.5664 135.973 57.3555C135.707 58.1367 135.316 58.8203 134.801 59.4062C134.293 59.9844 133.668 60.4336 132.926 60.7539C132.184 61.0742 131.332 61.2344 130.371 61.2344C129.41 61.2344 128.555 61.0742 127.805 60.7539C127.062 60.4336 126.434 59.9844 125.918 59.4062C125.41 58.8203 125.023 58.1367 124.758 57.3555C124.492 56.5664 124.359 55.7109 124.359 54.7891ZM127.734 54.543V54.7891C127.734 55.3203 127.781 55.8164 127.875 56.2773C127.969 56.7383 128.117 57.1445 128.32 57.4961C128.531 57.8398 128.805 58.1094 129.141 58.3047C129.477 58.5 129.887 58.5977 130.371 58.5977C130.84 58.5977 131.242 58.5 131.578 58.3047C131.914 58.1094 132.184 57.8398 132.387 57.4961C132.59 57.1445 132.738 56.7383 132.832 56.2773C132.934 55.8164 132.984 55.3203 132.984 54.7891V54.543C132.984 54.0273 132.934 53.543 132.832 53.0898C132.738 52.6289 132.586 52.2227 132.375 51.8711C132.172 51.5117 131.902 51.2305 131.566 51.0273C131.23 50.8242 130.824 50.7227 130.348 50.7227C129.871 50.7227 129.465 50.8242 129.129 51.0273C128.801 51.2305 128.531 51.5117 128.32 51.8711C128.117 52.2227 127.969 52.6289 127.875 53.0898C127.781 53.543 127.734 54.0273 127.734 54.543ZM145.945 57.9648V48.3203H149.32V61H146.145L145.945 57.9648ZM146.32 55.3633L147.316 55.3398C147.316 56.1836 147.219 56.9688 147.023 57.6953C146.828 58.4141 146.535 59.0391 146.145 59.5703C145.754 60.0938 145.262 60.5039 144.668 60.8008C144.074 61.0898 143.375 61.2344 142.57 61.2344C141.953 61.2344 141.383 61.1484 140.859 60.9766C140.344 60.7969 139.898 60.5195 139.523 60.1445C139.156 59.7617 138.867 59.2734 138.656 58.6797C138.453 58.0781 138.352 57.3555 138.352 56.5117V48.3203H141.727V56.5352C141.727 56.9102 141.77 57.2266 141.855 57.4844C141.949 57.7422 142.078 57.9531 142.242 58.1172C142.406 58.2812 142.598 58.3984 142.816 58.4688C143.043 58.5391 143.293 58.5742 143.566 58.5742C144.262 58.5742 144.809 58.4336 145.207 58.1523C145.613 57.8711 145.898 57.4883 146.062 57.0039C146.234 56.5117 146.32 55.9648 146.32 55.3633ZM155.273 51.0859V61H151.898V48.3203H155.074L155.273 51.0859ZM159.094 48.2383L159.035 51.3672C158.871 51.3438 158.672 51.3242 158.438 51.3086C158.211 51.2852 158.004 51.2734 157.816 51.2734C157.34 51.2734 156.926 51.3359 156.574 51.4609C156.23 51.5781 155.941 51.7539 155.707 51.9883C155.48 52.2227 155.309 52.5078 155.191 52.8438C155.082 53.1797 155.02 53.5625 155.004 53.9922L154.324 53.7812C154.324 52.9609 154.406 52.207 154.57 51.5195C154.734 50.8242 154.973 50.2188 155.285 49.7031C155.605 49.1875 155.996 48.7891 156.457 48.5078C156.918 48.2266 157.445 48.0859 158.039 48.0859C158.227 48.0859 158.418 48.1016 158.613 48.1328C158.809 48.1562 158.969 48.1914 159.094 48.2383ZM164.25 48.3203V61H160.863V48.3203H164.25ZM160.652 45.0156C160.652 44.5234 160.824 44.1172 161.168 43.7969C161.512 43.4766 161.973 43.3164 162.551 43.3164C163.121 43.3164 163.578 43.4766 163.922 43.7969C164.273 44.1172 164.449 44.5234 164.449 45.0156C164.449 45.5078 164.273 45.9141 163.922 46.2344C163.578 46.5547 163.121 46.7148 162.551 46.7148C161.973 46.7148 161.512 46.5547 161.168 46.2344C160.824 45.9141 160.652 45.5078 160.652 45.0156ZM171.352 58.5391L174.164 48.3203H177.691L173.414 61H171.281L171.352 58.5391ZM169.418 48.3203L172.242 58.5508L172.301 61H170.156L165.879 48.3203H169.418ZM178.477 54.7891V54.543C178.477 53.6133 178.609 52.7578 178.875 51.9766C179.141 51.1875 179.527 50.5039 180.035 49.9258C180.543 49.3477 181.168 48.8984 181.91 48.5781C182.652 48.25 183.504 48.0859 184.465 48.0859C185.426 48.0859 186.281 48.25 187.031 48.5781C187.781 48.8984 188.41 49.3477 188.918 49.9258C189.434 50.5039 189.824 51.1875 190.09 51.9766C190.355 52.7578 190.488 53.6133 190.488 54.543V54.7891C190.488 55.7109 190.355 56.5664 190.09 57.3555C189.824 58.1367 189.434 58.8203 188.918 59.4062C188.41 59.9844 187.785 60.4336 187.043 60.7539C186.301 61.0742 185.449 61.2344 184.488 61.2344C183.527 61.2344 182.672 61.0742 181.922 60.7539C181.18 60.4336 180.551 59.9844 180.035 59.4062C179.527 58.8203 179.141 58.1367 178.875 57.3555C178.609 56.5664 178.477 55.7109 178.477 54.7891ZM181.852 54.543V54.7891C181.852 55.3203 181.898 55.8164 181.992 56.2773C182.086 56.7383 182.234 57.1445 182.438 57.4961C182.648 57.8398 182.922 58.1094 183.258 58.3047C183.594 58.5 184.004 58.5977 184.488 58.5977C184.957 58.5977 185.359 58.5 185.695 58.3047C186.031 58.1094 186.301 57.8398 186.504 57.4961C186.707 57.1445 186.855 56.7383 186.949 56.2773C187.051 55.8164 187.102 55.3203 187.102 54.7891V54.543C187.102 54.0273 187.051 53.543 186.949 53.0898C186.855 52.6289 186.703 52.2227 186.492 51.8711C186.289 51.5117 186.02 51.2305 185.684 51.0273C185.348 50.8242 184.941 50.7227 184.465 50.7227C183.988 50.7227 183.582 50.8242 183.246 51.0273C182.918 51.2305 182.648 51.5117 182.438 51.8711C182.234 52.2227 182.086 52.6289 181.992 53.0898C181.898 53.543 181.852 54.0273 181.852 54.543Z" fill="#888888"/>
<path d="M106.688 119H99.1172L99.1641 112.672H106.688C108.25 112.672 109.57 112.297 110.648 111.547C111.742 110.797 112.57 109.68 113.133 108.195C113.711 106.695 114 104.852 114 102.664V101.188C114 99.5469 113.836 98.1094 113.508 96.875C113.195 95.625 112.727 94.5859 112.102 93.7578C111.477 92.9141 110.695 92.2812 109.758 91.8594C108.836 91.4375 107.773 91.2266 106.57 91.2266H98.9766V84.875H106.57C108.883 84.875 111 85.2734 112.922 86.0703C114.859 86.8516 116.531 87.9766 117.938 89.4453C119.359 90.8984 120.453 92.625 121.219 94.625C122 96.6094 122.391 98.8125 122.391 101.234V102.664C122.391 105.07 122 107.273 121.219 109.273C120.453 111.273 119.367 113 117.961 114.453C116.555 115.906 114.891 117.031 112.969 117.828C111.062 118.609 108.969 119 106.688 119ZM103.828 84.875V119H95.6016V84.875H103.828ZM138.586 119.469C136.523 119.469 134.68 119.148 133.055 118.508C131.43 117.852 130.055 116.953 128.93 115.812C127.82 114.672 126.969 113.359 126.375 111.875C125.797 110.391 125.508 108.82 125.508 107.164V106.273C125.508 104.414 125.766 102.695 126.281 101.117C126.797 99.5234 127.562 98.1328 128.578 96.9453C129.594 95.7578 130.867 94.8359 132.398 94.1797C133.93 93.5078 135.711 93.1719 137.742 93.1719C139.539 93.1719 141.148 93.4609 142.57 94.0391C143.992 94.6172 145.195 95.4453 146.18 96.5234C147.18 97.6016 147.938 98.9062 148.453 100.438C148.984 101.969 149.25 103.688 149.25 105.594V108.805H128.531V103.859H141.539V103.25C141.555 102.406 141.406 101.688 141.094 101.094C140.797 100.5 140.359 100.047 139.781 99.7344C139.203 99.4219 138.5 99.2656 137.672 99.2656C136.812 99.2656 136.102 99.4531 135.539 99.8281C134.992 100.203 134.562 100.719 134.25 101.375C133.953 102.016 133.742 102.758 133.617 103.602C133.492 104.445 133.43 105.336 133.43 106.273V107.164C133.43 108.102 133.555 108.953 133.805 109.719C134.07 110.484 134.445 111.141 134.93 111.688C135.43 112.219 136.023 112.633 136.711 112.93C137.414 113.227 138.211 113.375 139.102 113.375C140.18 113.375 141.242 113.172 142.289 112.766C143.336 112.359 144.234 111.688 144.984 110.75L148.57 115.016C148.055 115.75 147.32 116.461 146.367 117.148C145.43 117.836 144.305 118.398 142.992 118.836C141.68 119.258 140.211 119.469 138.586 119.469ZM160.43 98.5156V128.75H152.531V93.6406H159.891L160.43 98.5156ZM175.992 106.016V106.508C175.992 108.352 175.781 110.062 175.359 111.641C174.938 113.219 174.312 114.594 173.484 115.766C172.656 116.938 171.625 117.852 170.391 118.508C169.172 119.148 167.758 119.469 166.148 119.469C164.633 119.469 163.328 119.133 162.234 118.461C161.141 117.789 160.227 116.859 159.492 115.672C158.758 114.484 158.164 113.125 157.711 111.594C157.258 110.062 156.898 108.445 156.633 106.742V106.109C156.898 104.281 157.258 102.586 157.711 101.023C158.164 99.4453 158.758 98.0703 159.492 96.8984C160.227 95.7266 161.133 94.8125 162.211 94.1562C163.305 93.5 164.609 93.1719 166.125 93.1719C167.734 93.1719 169.148 93.4766 170.367 94.0859C171.602 94.6953 172.633 95.5703 173.461 96.7109C174.305 97.8359 174.938 99.1875 175.359 100.766C175.781 102.344 175.992 104.094 175.992 106.016ZM168.094 106.508V106.016C168.094 105.031 168.023 104.133 167.883 103.32C167.742 102.492 167.516 101.773 167.203 101.164C166.906 100.555 166.508 100.086 166.008 99.7578C165.508 99.4297 164.891 99.2656 164.156 99.2656C163.312 99.2656 162.602 99.3984 162.023 99.6641C161.461 99.9141 161.008 100.305 160.664 100.836C160.336 101.352 160.102 102 159.961 102.781C159.836 103.547 159.781 104.445 159.797 105.477V107.398C159.766 108.586 159.883 109.633 160.148 110.539C160.414 111.43 160.875 112.125 161.531 112.625C162.188 113.125 163.078 113.375 164.203 113.375C164.953 113.375 165.578 113.203 166.078 112.859C166.578 112.5 166.977 112.008 167.273 111.383C167.57 110.742 167.781 110.008 167.906 109.18C168.031 108.352 168.094 107.461 168.094 106.508ZM187.852 83V119H179.93V83H187.852ZM191.742 106.578V106.086C191.742 104.227 192.008 102.516 192.539 100.953C193.07 99.375 193.852 98.0078 194.883 96.8516C195.914 95.6953 197.188 94.7969 198.703 94.1562C200.219 93.5 201.969 93.1719 203.953 93.1719C205.953 93.1719 207.711 93.5 209.227 94.1562C210.758 94.7969 212.039 95.6953 213.07 96.8516C214.102 98.0078 214.883 99.375 215.414 100.953C215.945 102.516 216.211 104.227 216.211 106.086V106.578C216.211 108.422 215.945 110.133 215.414 111.711C214.883 113.273 214.102 114.641 213.07 115.812C212.039 116.969 210.766 117.867 209.25 118.508C207.734 119.148 205.984 119.469 204 119.469C202.016 119.469 200.258 119.148 198.727 118.508C197.195 117.867 195.914 116.969 194.883 115.812C193.852 114.641 193.07 113.273 192.539 111.711C192.008 110.133 191.742 108.422 191.742 106.578ZM199.641 106.086V106.578C199.641 107.531 199.711 108.422 199.852 109.25C199.992 110.078 200.227 110.805 200.555 111.43C200.883 112.039 201.328 112.516 201.891 112.859C202.453 113.203 203.156 113.375 204 113.375C204.828 113.375 205.516 113.203 206.062 112.859C206.625 112.516 207.07 112.039 207.398 111.43C207.727 110.805 207.961 110.078 208.102 109.25C208.242 108.422 208.312 107.531 208.312 106.578V106.086C208.312 105.164 208.242 104.297 208.102 103.484C207.961 102.656 207.727 101.93 207.398 101.305C207.07 100.664 206.625 100.164 206.062 99.8047C205.5 99.4453 204.797 99.2656 203.953 99.2656C203.125 99.2656 202.43 99.4453 201.867 99.8047C201.32 100.164 200.883 100.664 200.555 101.305C200.227 101.93 199.992 102.656 199.852 103.484C199.711 104.297 199.641 105.164 199.641 106.086ZM227.133 116.023L233.695 93.6406H242.18L231.984 122.773C231.766 123.414 231.477 124.102 231.117 124.836C230.758 125.586 230.266 126.297 229.641 126.969C229.016 127.641 228.211 128.188 227.227 128.609C226.258 129.031 225.055 129.242 223.617 129.242C222.852 129.242 222.289 129.203 221.93 129.125C221.586 129.062 221.055 128.945 220.336 128.773V123.125C220.539 123.125 220.711 123.125 220.852 123.125C221.008 123.125 221.18 123.125 221.367 123.125C222.211 123.125 222.883 123.039 223.383 122.867C223.898 122.695 224.289 122.445 224.555 122.117C224.836 121.789 225.055 121.391 225.211 120.922L227.133 116.023ZM225.469 93.6406L230.461 111.383L231.328 119.75H226.031L217.008 93.6406H225.469ZM252.211 99.0078V119H244.312V93.6406H251.719L252.211 99.0078ZM251.25 105.453L249.445 105.5C249.445 103.719 249.656 102.078 250.078 100.578C250.5 99.0781 251.125 97.7734 251.953 96.6641C252.781 95.5547 253.797 94.6953 255 94.0859C256.219 93.4766 257.625 93.1719 259.219 93.1719C260.328 93.1719 261.336 93.3438 262.242 93.6875C263.148 94.0156 263.93 94.5391 264.586 95.2578C265.242 95.9609 265.742 96.8828 266.086 98.0234C266.445 99.1484 266.625 100.5 266.625 102.078V119H258.727V103.086C258.727 102.008 258.602 101.195 258.352 100.648C258.117 100.102 257.773 99.7344 257.32 99.5469C256.867 99.3594 256.312 99.2656 255.656 99.2656C254.969 99.2656 254.352 99.4219 253.805 99.7344C253.258 100.047 252.789 100.484 252.398 101.047C252.023 101.594 251.734 102.242 251.531 102.992C251.344 103.742 251.25 104.562 251.25 105.453ZM265.734 105.453L263.531 105.5C263.531 103.719 263.727 102.078 264.117 100.578C264.523 99.0781 265.125 97.7734 265.922 96.6641C266.734 95.5547 267.742 94.6953 268.945 94.0859C270.148 93.4766 271.547 93.1719 273.141 93.1719C274.297 93.1719 275.359 93.3438 276.328 93.6875C277.297 94.0312 278.133 94.5859 278.836 95.3516C279.539 96.1172 280.086 97.1328 280.477 98.3984C280.867 99.6484 281.062 101.195 281.062 103.039V119H273.141V103.039C273.141 101.992 273.016 101.203 272.766 100.672C272.531 100.125 272.188 99.7578 271.734 99.5703C271.281 99.3672 270.742 99.2656 270.117 99.2656C269.367 99.2656 268.719 99.4219 268.172 99.7344C267.625 100.047 267.164 100.484 266.789 101.047C266.43 101.594 266.164 102.242 265.992 102.992C265.82 103.742 265.734 104.562 265.734 105.453ZM297.867 119.469C295.805 119.469 293.961 119.148 292.336 118.508C290.711 117.852 289.336 116.953 288.211 115.812C287.102 114.672 286.25 113.359 285.656 111.875C285.078 110.391 284.789 108.82 284.789 107.164V106.273C284.789 104.414 285.047 102.695 285.562 101.117C286.078 99.5234 286.844 98.1328 287.859 96.9453C288.875 95.7578 290.148 94.8359 291.68 94.1797C293.211 93.5078 294.992 93.1719 297.023 93.1719C298.82 93.1719 300.43 93.4609 301.852 94.0391C303.273 94.6172 304.477 95.4453 305.461 96.5234C306.461 97.6016 307.219 98.9062 307.734 100.438C308.266 101.969 308.531 103.688 308.531 105.594V108.805H287.812V103.859H300.82V103.25C300.836 102.406 300.688 101.688 300.375 101.094C300.078 100.5 299.641 100.047 299.062 99.7344C298.484 99.4219 297.781 99.2656 296.953 99.2656C296.094 99.2656 295.383 99.4531 294.82 99.8281C294.273 100.203 293.844 100.719 293.531 101.375C293.234 102.016 293.023 102.758 292.898 103.602C292.773 104.445 292.711 105.336 292.711 106.273V107.164C292.711 108.102 292.836 108.953 293.086 109.719C293.352 110.484 293.727 111.141 294.211 111.688C294.711 112.219 295.305 112.633 295.992 112.93C296.695 113.227 297.492 113.375 298.383 113.375C299.461 113.375 300.523 113.172 301.57 112.766C302.617 112.359 303.516 111.688 304.266 110.75L307.852 115.016C307.336 115.75 306.602 116.461 305.648 117.148C304.711 117.836 303.586 118.398 302.273 118.836C300.961 119.258 299.492 119.469 297.867 119.469ZM319.5 99.0547V119H311.602V93.6406H319.008L319.5 99.0547ZM318.562 105.453L316.711 105.5C316.711 103.562 316.945 101.836 317.414 100.32C317.883 98.7891 318.547 97.4922 319.406 96.4297C320.266 95.3672 321.289 94.5625 322.477 94.0156C323.68 93.4531 325.016 93.1719 326.484 93.1719C327.656 93.1719 328.727 93.3438 329.695 93.6875C330.68 94.0312 331.523 94.5859 332.227 95.3516C332.945 96.1172 333.492 97.1328 333.867 98.3984C334.258 99.6484 334.453 101.195 334.453 103.039V119H326.508V103.016C326.508 102 326.367 101.227 326.086 100.695C325.805 100.148 325.398 99.7734 324.867 99.5703C324.336 99.3672 323.688 99.2656 322.922 99.2656C322.109 99.2656 321.422 99.4219 320.859 99.7344C320.297 100.047 319.844 100.484 319.5 101.047C319.172 101.594 318.93 102.242 318.773 102.992C318.633 103.742 318.562 104.562 318.562 105.453ZM352.195 93.6406V99.125H336.914V93.6406H352.195ZM340.125 87.3359H348.023V110.727C348.023 111.398 348.102 111.922 348.258 112.297C348.414 112.656 348.68 112.914 349.055 113.07C349.445 113.211 349.961 113.281 350.602 113.281C351.055 113.281 351.43 113.273 351.727 113.258C352.023 113.227 352.305 113.188 352.57 113.141V118.789C351.898 119.008 351.195 119.172 350.461 119.281C349.727 119.406 348.945 119.469 348.117 119.469C346.43 119.469 344.984 119.203 343.781 118.672C342.594 118.141 341.688 117.305 341.062 116.164C340.438 115.023 340.125 113.539 340.125 111.711V87.3359Z" fill="black"/>
<path d="M1134 0H1348C1356.28 0 1363 6.71573 1363 15V148C1363 156.284 1356.28 163 1348 163H1134V0Z" fill="#2389DA"/>
<path d="M1212.5 117.5L1212.5 45.5L1284.5 45.5L1284.5 117.5L1212.5 117.5Z" fill="white" fill-opacity="0.01"/>
<path d="M1221.5 81.5125L1221.5 108.5L1275.5 108.5L1275.5 81.5" stroke="white" stroke-width="7.24" stroke-linecap="round" stroke-linejoin="round"/>
<path d="M1262 68L1248.5 54.5L1235 68" stroke="white" stroke-width="7.24" stroke-linecap="round" stroke-linejoin="round"/>
<path d="M1248.49 93.4999L1248.49 54.5" stroke="white" stroke-width="7.24" stroke-linecap="round" stroke-linejoin="round"/>
</svg>
