<svg width="1363" height="163" viewBox="0 0 1363 163" fill="none" xmlns="http://www.w3.org/2000/svg">
<path d="M0 15C0 6.71573 6.71573 0 15 0H37V163H15C6.71573 163 0 156.284 0 148V15Z" fill="#424242"/>
<rect width="1097" height="163" transform="translate(37)" fill="#F0F0F0"/>
<path d="M101.906 53.9219L94.3945 51.2383V48.0859L104.602 52.375V54.6367L101.906 53.9219ZM94.3945 56.1719L101.918 53.4297L104.602 52.7852V55.0352L94.3945 59.3242V56.1719ZM119.895 43.9375V61H116.391V43.9375H119.895ZM125.145 43.9375V46.6914H111.223V43.9375H125.145ZM124.359 54.7891V54.543C124.359 53.6133 124.492 52.7578 124.758 51.9766C125.023 51.1875 125.41 50.5039 125.918 49.9258C126.426 49.3477 127.051 48.8984 127.793 48.5781C128.535 48.25 129.387 48.0859 130.348 48.0859C131.309 48.0859 132.164 48.25 132.914 48.5781C133.664 48.8984 134.293 49.3477 134.801 49.9258C135.316 50.5039 135.707 51.1875 135.973 51.9766C136.238 52.7578 136.371 53.6133 136.371 54.543V54.7891C136.371 55.7109 136.238 56.5664 135.973 57.3555C135.707 58.1367 135.316 58.8203 134.801 59.4062C134.293 59.9844 133.668 60.4336 132.926 60.7539C132.184 61.0742 131.332 61.2344 130.371 61.2344C129.41 61.2344 128.555 61.0742 127.805 60.7539C127.062 60.4336 126.434 59.9844 125.918 59.4062C125.41 58.8203 125.023 58.1367 124.758 57.3555C124.492 56.5664 124.359 55.7109 124.359 54.7891ZM127.734 54.543V54.7891C127.734 55.3203 127.781 55.8164 127.875 56.2773C127.969 56.7383 128.117 57.1445 128.32 57.4961C128.531 57.8398 128.805 58.1094 129.141 58.3047C129.477 58.5 129.887 58.5977 130.371 58.5977C130.84 58.5977 131.242 58.5 131.578 58.3047C131.914 58.1094 132.184 57.8398 132.387 57.4961C132.59 57.1445 132.738 56.7383 132.832 56.2773C132.934 55.8164 132.984 55.3203 132.984 54.7891V54.543C132.984 54.0273 132.934 53.543 132.832 53.0898C132.738 52.6289 132.586 52.2227 132.375 51.8711C132.172 51.5117 131.902 51.2305 131.566 51.0273C131.23 50.8242 130.824 50.7227 130.348 50.7227C129.871 50.7227 129.465 50.8242 129.129 51.0273C128.801 51.2305 128.531 51.5117 128.32 51.8711C128.117 52.2227 127.969 52.6289 127.875 53.0898C127.781 53.543 127.734 54.0273 127.734 54.543ZM145.945 57.9648V48.3203H149.32V61H146.145L145.945 57.9648ZM146.32 55.3633L147.316 55.3398C147.316 56.1836 147.219 56.9688 147.023 57.6953C146.828 58.4141 146.535 59.0391 146.145 59.5703C145.754 60.0938 145.262 60.5039 144.668 60.8008C144.074 61.0898 143.375 61.2344 142.57 61.2344C141.953 61.2344 141.383 61.1484 140.859 60.9766C140.344 60.7969 139.898 60.5195 139.523 60.1445C139.156 59.7617 138.867 59.2734 138.656 58.6797C138.453 58.0781 138.352 57.3555 138.352 56.5117V48.3203H141.727V56.5352C141.727 56.9102 141.77 57.2266 141.855 57.4844C141.949 57.7422 142.078 57.9531 142.242 58.1172C142.406 58.2812 142.598 58.3984 142.816 58.4688C143.043 58.5391 143.293 58.5742 143.566 58.5742C144.262 58.5742 144.809 58.4336 145.207 58.1523C145.613 57.8711 145.898 57.4883 146.062 57.0039C146.234 56.5117 146.32 55.9648 146.32 55.3633ZM155.273 51.0859V61H151.898V48.3203H155.074L155.273 51.0859ZM159.094 48.2383L159.035 51.3672C158.871 51.3438 158.672 51.3242 158.438 51.3086C158.211 51.2852 158.004 51.2734 157.816 51.2734C157.34 51.2734 156.926 51.3359 156.574 51.4609C156.23 51.5781 155.941 51.7539 155.707 51.9883C155.48 52.2227 155.309 52.5078 155.191 52.8438C155.082 53.1797 155.02 53.5625 155.004 53.9922L154.324 53.7812C154.324 52.9609 154.406 52.207 154.57 51.5195C154.734 50.8242 154.973 50.2188 155.285 49.7031C155.605 49.1875 155.996 48.7891 156.457 48.5078C156.918 48.2266 157.445 48.0859 158.039 48.0859C158.227 48.0859 158.418 48.1016 158.613 48.1328C158.809 48.1562 158.969 48.1914 159.094 48.2383ZM164.25 48.3203V61H160.863V48.3203H164.25ZM160.652 45.0156C160.652 44.5234 160.824 44.1172 161.168 43.7969C161.512 43.4766 161.973 43.3164 162.551 43.3164C163.121 43.3164 163.578 43.4766 163.922 43.7969C164.273 44.1172 164.449 44.5234 164.449 45.0156C164.449 45.5078 164.273 45.9141 163.922 46.2344C163.578 46.5547 163.121 46.7148 162.551 46.7148C161.973 46.7148 161.512 46.5547 161.168 46.2344C160.824 45.9141 160.652 45.5078 160.652 45.0156ZM171.352 58.5391L174.164 48.3203H177.691L173.414 61H171.281L171.352 58.5391ZM169.418 48.3203L172.242 58.5508L172.301 61H170.156L165.879 48.3203H169.418ZM178.477 54.7891V54.543C178.477 53.6133 178.609 52.7578 178.875 51.9766C179.141 51.1875 179.527 50.5039 180.035 49.9258C180.543 49.3477 181.168 48.8984 181.91 48.5781C182.652 48.25 183.504 48.0859 184.465 48.0859C185.426 48.0859 186.281 48.25 187.031 48.5781C187.781 48.8984 188.41 49.3477 188.918 49.9258C189.434 50.5039 189.824 51.1875 190.09 51.9766C190.355 52.7578 190.488 53.6133 190.488 54.543V54.7891C190.488 55.7109 190.355 56.5664 190.09 57.3555C189.824 58.1367 189.434 58.8203 188.918 59.4062C188.41 59.9844 187.785 60.4336 187.043 60.7539C186.301 61.0742 185.449 61.2344 184.488 61.2344C183.527 61.2344 182.672 61.0742 181.922 60.7539C181.18 60.4336 180.551 59.9844 180.035 59.4062C179.527 58.8203 179.141 58.1367 178.875 57.3555C178.609 56.5664 178.477 55.7109 178.477 54.7891ZM181.852 54.543V54.7891C181.852 55.3203 181.898 55.8164 181.992 56.2773C182.086 56.7383 182.234 57.1445 182.438 57.4961C182.648 57.8398 182.922 58.1094 183.258 58.3047C183.594 58.5 184.004 58.5977 184.488 58.5977C184.957 58.5977 185.359 58.5 185.695 58.3047C186.031 58.1094 186.301 57.8398 186.504 57.4961C186.707 57.1445 186.855 56.7383 186.949 56.2773C187.051 55.8164 187.102 55.3203 187.102 54.7891V54.543C187.102 54.0273 187.051 53.543 186.949 53.0898C186.855 52.6289 186.703 52.2227 186.492 51.8711C186.289 51.5117 186.02 51.2305 185.684 51.0273C185.348 50.8242 184.941 50.7227 184.465 50.7227C183.988 50.7227 183.582 50.8242 183.246 51.0273C182.918 51.2305 182.648 51.5117 182.438 51.8711C182.234 52.2227 182.086 52.6289 181.992 53.0898C181.898 53.543 181.852 54.0273 181.852 54.543Z" fill="#888888"/>
<path d="M106.688 119H99.1172L99.1641 112.672H106.688C108.25 112.672 109.57 112.297 110.648 111.547C111.742 110.797 112.57 109.68 113.133 108.195C113.711 106.695 114 104.852 114 102.664V101.188C114 99.5469 113.836 98.1094 113.508 96.875C113.195 95.625 112.727 94.5859 112.102 93.7578C111.477 92.9141 110.695 92.2812 109.758 91.8594C108.836 91.4375 107.773 91.2266 106.57 91.2266H98.9766V84.875H106.57C108.883 84.875 111 85.2734 112.922 86.0703C114.859 86.8516 116.531 87.9766 117.938 89.4453C119.359 90.8984 120.453 92.625 121.219 94.625C122 96.6094 122.391 98.8125 122.391 101.234V102.664C122.391 105.07 122 107.273 121.219 109.273C120.453 111.273 119.367 113 117.961 114.453C116.555 115.906 114.891 117.031 112.969 117.828C111.062 118.609 108.969 119 106.688 119ZM103.828 84.875V119H95.6016V84.875H103.828ZM138.586 119.469C136.523 119.469 134.68 119.148 133.055 118.508C131.43 117.852 130.055 116.953 128.93 115.812C127.82 114.672 126.969 113.359 126.375 111.875C125.797 110.391 125.508 108.82 125.508 107.164V106.273C125.508 104.414 125.766 102.695 126.281 101.117C126.797 99.5234 127.562 98.1328 128.578 96.9453C129.594 95.7578 130.867 94.8359 132.398 94.1797C133.93 93.5078 135.711 93.1719 137.742 93.1719C139.539 93.1719 141.148 93.4609 142.57 94.0391C143.992 94.6172 145.195 95.4453 146.18 96.5234C147.18 97.6016 147.938 98.9062 148.453 100.438C148.984 101.969 149.25 103.688 149.25 105.594V108.805H128.531V103.859H141.539V103.25C141.555 102.406 141.406 101.688 141.094 101.094C140.797 100.5 140.359 100.047 139.781 99.7344C139.203 99.4219 138.5 99.2656 137.672 99.2656C136.812 99.2656 136.102 99.4531 135.539 99.8281C134.992 100.203 134.562 100.719 134.25 101.375C133.953 102.016 133.742 102.758 133.617 103.602C133.492 104.445 133.43 105.336 133.43 106.273V107.164C133.43 108.102 133.555 108.953 133.805 109.719C134.07 110.484 134.445 111.141 134.93 111.688C135.43 112.219 136.023 112.633 136.711 112.93C137.414 113.227 138.211 113.375 139.102 113.375C140.18 113.375 141.242 113.172 142.289 112.766C143.336 112.359 144.234 111.688 144.984 110.75L148.57 115.016C148.055 115.75 147.32 116.461 146.367 117.148C145.43 117.836 144.305 118.398 142.992 118.836C141.68 119.258 140.211 119.469 138.586 119.469ZM160.43 99.0078V119H152.531V93.6406H159.938L160.43 99.0078ZM159.469 105.453L157.664 105.5C157.664 103.719 157.875 102.078 158.297 100.578C158.719 99.0781 159.344 97.7734 160.172 96.6641C161 95.5547 162.016 94.6953 163.219 94.0859C164.438 93.4766 165.844 93.1719 167.438 93.1719C168.547 93.1719 169.555 93.3438 170.461 93.6875C171.367 94.0156 172.148 94.5391 172.805 95.2578C173.461 95.9609 173.961 96.8828 174.305 98.0234C174.664 99.1484 174.844 100.5 174.844 102.078V119H166.945V103.086C166.945 102.008 166.82 101.195 166.57 100.648C166.336 100.102 165.992 99.7344 165.539 99.5469C165.086 99.3594 164.531 99.2656 163.875 99.2656C163.188 99.2656 162.57 99.4219 162.023 99.7344C161.477 100.047 161.008 100.484 160.617 101.047C160.242 101.594 159.953 102.242 159.75 102.992C159.562 103.742 159.469 104.562 159.469 105.453ZM173.953 105.453L171.75 105.5C171.75 103.719 171.945 102.078 172.336 100.578C172.742 99.0781 173.344 97.7734 174.141 96.6641C174.953 95.5547 175.961 94.6953 177.164 94.0859C178.367 93.4766 179.766 93.1719 181.359 93.1719C182.516 93.1719 183.578 93.3438 184.547 93.6875C185.516 94.0312 186.352 94.5859 187.055 95.3516C187.758 96.1172 188.305 97.1328 188.695 98.3984C189.086 99.6484 189.281 101.195 189.281 103.039V119H181.359V103.039C181.359 101.992 181.234 101.203 180.984 100.672C180.75 100.125 180.406 99.7578 179.953 99.5703C179.5 99.3672 178.961 99.2656 178.336 99.2656C177.586 99.2656 176.938 99.4219 176.391 99.7344C175.844 100.047 175.383 100.484 175.008 101.047C174.648 101.594 174.383 102.242 174.211 102.992C174.039 103.742 173.953 104.562 173.953 105.453ZM192.82 106.578V106.086C192.82 104.227 193.086 102.516 193.617 100.953C194.148 99.375 194.93 98.0078 195.961 96.8516C196.992 95.6953 198.266 94.7969 199.781 94.1562C201.297 93.5 203.047 93.1719 205.031 93.1719C207.031 93.1719 208.789 93.5 210.305 94.1562C211.836 94.7969 213.117 95.6953 214.148 96.8516C215.18 98.0078 215.961 99.375 216.492 100.953C217.023 102.516 217.289 104.227 217.289 106.086V106.578C217.289 108.422 217.023 110.133 216.492 111.711C215.961 113.273 215.18 114.641 214.148 115.812C213.117 116.969 211.844 117.867 210.328 118.508C208.812 119.148 207.062 119.469 205.078 119.469C203.094 119.469 201.336 119.148 199.805 118.508C198.273 117.867 196.992 116.969 195.961 115.812C194.93 114.641 194.148 113.273 193.617 111.711C193.086 110.133 192.82 108.422 192.82 106.578ZM200.719 106.086V106.578C200.719 107.531 200.789 108.422 200.93 109.25C201.07 110.078 201.305 110.805 201.633 111.43C201.961 112.039 202.406 112.516 202.969 112.859C203.531 113.203 204.234 113.375 205.078 113.375C205.906 113.375 206.594 113.203 207.141 112.859C207.703 112.516 208.148 112.039 208.477 111.43C208.805 110.805 209.039 110.078 209.18 109.25C209.32 108.422 209.391 107.531 209.391 106.578V106.086C209.391 105.164 209.32 104.297 209.18 103.484C209.039 102.656 208.805 101.93 208.477 101.305C208.148 100.664 207.703 100.164 207.141 99.8047C206.578 99.4453 205.875 99.2656 205.031 99.2656C204.203 99.2656 203.508 99.4453 202.945 99.8047C202.398 100.164 201.961 100.664 201.633 101.305C201.305 101.93 201.07 102.656 200.93 103.484C200.789 104.297 200.719 105.164 200.719 106.086Z" fill="black"/>
<path d="M1134 0H1348C1356.28 0 1363 6.71573 1363 15V148C1363 156.284 1356.28 163 1348 163H1134V0Z" fill="#2389DA"/>
<path d="M1280.07 47.5H1216.93L1214.5 49.9286V113.071L1216.93 115.5H1280.07L1282.5 113.071V49.9286L1280.07 47.5ZM1277.64 110.643H1233.93V100.929H1245.1C1246.56 103.843 1249.96 105.786 1253.36 105.786C1258.7 105.786 1263.07 101.414 1263.07 96.0714C1263.07 90.7286 1258.7 86.3571 1253.36 86.3571C1248.01 86.3571 1243.64 90.7286 1243.64 96.0714H1229.07V110.643H1219.36V52.3571H1229.07V63.5286C1226.16 64.9857 1224.21 68.3857 1224.21 71.7857C1224.21 77.1286 1228.59 81.5 1233.93 81.5C1239.27 81.5 1243.64 77.1286 1243.64 71.7857H1253.36C1253.36 77.1286 1257.73 81.5 1263.07 81.5C1268.41 81.5 1272.79 77.1286 1272.79 71.7857C1272.79 66.4429 1268.41 62.0714 1263.07 62.0714C1259.67 62.0714 1256.27 64.0143 1254.81 66.9286H1242.19C1240.73 64.0143 1237.33 62.0714 1233.93 62.0714V52.3571H1277.64V110.643ZM1248.5 96.0714C1248.5 93.1571 1250.44 91.2143 1253.36 91.2143C1256.27 91.2143 1258.21 93.1571 1258.21 96.0714C1258.21 98.9857 1256.27 100.929 1253.36 100.929C1250.44 100.929 1248.5 98.9857 1248.5 96.0714ZM1233.93 66.9286C1236.84 66.9286 1238.79 68.8714 1238.79 71.7857C1238.79 74.7 1236.84 76.6429 1233.93 76.6429C1231.01 76.6429 1229.07 74.7 1229.07 71.7857C1229.07 68.8714 1231.01 66.9286 1233.93 66.9286ZM1263.07 66.9286C1265.99 66.9286 1267.93 68.8714 1267.93 71.7857C1267.93 74.7 1265.99 76.6429 1263.07 76.6429C1260.16 76.6429 1258.21 74.7 1258.21 71.7857C1258.21 68.8714 1260.16 66.9286 1263.07 66.9286Z" fill="white"/>
</svg>
