<svg width="1363" height="297" viewBox="0 0 1363 297" fill="none" xmlns="http://www.w3.org/2000/svg">
<path d="M0 15C0 6.71573 6.71573 0 15 0H37V297H15C6.71573 297 0 290.284 0 282V15Z" fill="#2389DA"/>
<path d="M37 0H1066V297H37V0Z" fill="#F0F0F0"/>
<path d="M105.691 53.7832L98.7305 75H93.123L102.633 49.4062H106.201L105.691 53.7832ZM111.475 75L104.496 53.7832L103.934 49.4062H107.537L117.1 75H111.475ZM111.158 65.4727V69.6035H97.6406V65.4727H111.158ZM124.5 48V75H119.42V48H124.5ZM134.027 55.9805V75H128.947V55.9805H134.027ZM128.631 51.0234C128.631 50.2852 128.889 49.6758 129.404 49.1953C129.92 48.7148 130.611 48.4746 131.479 48.4746C132.334 48.4746 133.02 48.7148 133.535 49.1953C134.062 49.6758 134.326 50.2852 134.326 51.0234C134.326 51.7617 134.062 52.3711 133.535 52.8516C133.02 53.332 132.334 53.5723 131.479 53.5723C130.611 53.5723 129.92 53.332 129.404 52.8516C128.889 52.3711 128.631 51.7617 128.631 51.0234ZM164.666 70.8867V75H151.043V70.8867H164.666ZM152.766 49.4062V75H147.492V49.4062H152.766ZM162.891 59.8301V63.8379H151.043V59.8301H162.891ZM164.648 49.4062V53.5371H151.043V49.4062H164.648ZM172.77 48V75H167.689V48H172.77ZM188.186 70.8516V48H193.283V75H188.695L188.186 70.8516ZM176.162 65.7188V65.3496C176.162 63.8965 176.326 62.5781 176.654 61.3945C176.982 60.1992 177.463 59.1738 178.096 58.3184C178.729 57.4629 179.508 56.8008 180.434 56.332C181.359 55.8633 182.414 55.6289 183.598 55.6289C184.711 55.6289 185.684 55.8633 186.516 56.332C187.359 56.8008 188.074 57.4688 188.66 58.3359C189.258 59.1914 189.738 60.2051 190.102 61.377C190.465 62.5371 190.729 63.8086 190.893 65.1914V66C190.729 67.3242 190.465 68.5547 190.102 69.6914C189.738 70.8281 189.258 71.8242 188.66 72.6797C188.074 73.5234 187.359 74.1797 186.516 74.6484C185.672 75.1172 184.688 75.3516 183.562 75.3516C182.379 75.3516 181.324 75.1113 180.398 74.6309C179.484 74.1504 178.711 73.4766 178.078 72.6094C177.457 71.7422 176.982 70.7227 176.654 69.5508C176.326 68.3789 176.162 67.1016 176.162 65.7188ZM181.225 65.3496V65.7188C181.225 66.5039 181.283 67.2363 181.4 67.916C181.529 68.5957 181.734 69.1992 182.016 69.7266C182.309 70.2422 182.684 70.6465 183.141 70.9395C183.609 71.2207 184.178 71.3613 184.846 71.3613C185.713 71.3613 186.428 71.168 186.99 70.7812C187.553 70.3828 187.98 69.8379 188.273 69.1465C188.578 68.4551 188.754 67.6582 188.801 66.7559V64.4531C188.766 63.7148 188.66 63.0527 188.484 62.4668C188.32 61.8691 188.074 61.3594 187.746 60.9375C187.43 60.5156 187.031 60.1875 186.551 59.9531C186.082 59.7188 185.525 59.6016 184.881 59.6016C184.225 59.6016 183.662 59.7539 183.193 60.0586C182.725 60.3516 182.344 60.7559 182.051 61.2715C181.77 61.7871 181.559 62.3965 181.418 63.0996C181.289 63.791 181.225 64.541 181.225 65.3496ZM196.43 65.6836V65.3145C196.43 63.9199 196.629 62.6367 197.027 61.4648C197.426 60.2812 198.006 59.2559 198.768 58.3887C199.529 57.5215 200.467 56.8477 201.58 56.3672C202.693 55.875 203.971 55.6289 205.412 55.6289C206.854 55.6289 208.137 55.875 209.262 56.3672C210.387 56.8477 211.33 57.5215 212.092 58.3887C212.865 59.2559 213.451 60.2812 213.85 61.4648C214.248 62.6367 214.447 63.9199 214.447 65.3145V65.6836C214.447 67.0664 214.248 68.3496 213.85 69.5332C213.451 70.7051 212.865 71.7305 212.092 72.6094C211.33 73.4766 210.393 74.1504 209.279 74.6309C208.166 75.1113 206.889 75.3516 205.447 75.3516C204.006 75.3516 202.723 75.1113 201.598 74.6309C200.484 74.1504 199.541 73.4766 198.768 72.6094C198.006 71.7305 197.426 70.7051 197.027 69.5332C196.629 68.3496 196.43 67.0664 196.43 65.6836ZM201.492 65.3145V65.6836C201.492 66.4805 201.562 67.2246 201.703 67.916C201.844 68.6074 202.066 69.2168 202.371 69.7441C202.688 70.2598 203.098 70.6641 203.602 70.957C204.105 71.25 204.721 71.3965 205.447 71.3965C206.15 71.3965 206.754 71.25 207.258 70.957C207.762 70.6641 208.166 70.2598 208.471 69.7441C208.775 69.2168 208.998 68.6074 209.139 67.916C209.291 67.2246 209.367 66.4805 209.367 65.6836V65.3145C209.367 64.541 209.291 63.8145 209.139 63.1348C208.998 62.4434 208.77 61.834 208.453 61.3066C208.148 60.7676 207.744 60.3457 207.24 60.041C206.736 59.7363 206.127 59.584 205.412 59.584C204.697 59.584 204.088 59.7363 203.584 60.041C203.092 60.3457 202.688 60.7676 202.371 61.3066C202.066 61.834 201.844 62.4434 201.703 63.1348C201.562 63.8145 201.492 64.541 201.492 65.3145ZM222.621 60.1289V75H217.559V55.9805H222.322L222.621 60.1289ZM228.352 55.8574L228.264 60.5508C228.018 60.5156 227.719 60.4863 227.367 60.4629C227.027 60.4277 226.717 60.4102 226.436 60.4102C225.721 60.4102 225.1 60.5039 224.572 60.6914C224.057 60.8672 223.623 61.1309 223.271 61.4824C222.932 61.834 222.674 62.2617 222.498 62.7656C222.334 63.2695 222.24 63.8438 222.217 64.4883L221.197 64.1719C221.197 62.9414 221.32 61.8105 221.566 60.7793C221.812 59.7363 222.17 58.8281 222.639 58.0547C223.119 57.2812 223.705 56.6836 224.396 56.2617C225.088 55.8398 225.879 55.6289 226.77 55.6289C227.051 55.6289 227.338 55.6523 227.631 55.6992C227.924 55.7344 228.164 55.7871 228.352 55.8574Z" fill="#888888"/>
<path d="M115.312 100.188V140H105.715V100.188H115.312ZM127.289 100.188V107.598H94.0117V100.188H127.289ZM124.035 125.508V124.934C124.035 122.764 124.345 120.768 124.965 118.945C125.585 117.104 126.496 115.509 127.699 114.16C128.902 112.811 130.388 111.763 132.156 111.016C133.924 110.25 135.966 109.867 138.281 109.867C140.615 109.867 142.665 110.25 144.434 111.016C146.22 111.763 147.715 112.811 148.918 114.16C150.121 115.509 151.033 117.104 151.652 118.945C152.272 120.768 152.582 122.764 152.582 124.934V125.508C152.582 127.659 152.272 129.655 151.652 131.496C151.033 133.319 150.121 134.914 148.918 136.281C147.715 137.63 146.229 138.678 144.461 139.426C142.693 140.173 140.651 140.547 138.336 140.547C136.021 140.547 133.97 140.173 132.184 139.426C130.397 138.678 128.902 137.63 127.699 136.281C126.496 134.914 125.585 133.319 124.965 131.496C124.345 129.655 124.035 127.659 124.035 125.508ZM133.25 124.934V125.508C133.25 126.62 133.332 127.659 133.496 128.625C133.66 129.591 133.934 130.439 134.316 131.168C134.699 131.879 135.219 132.435 135.875 132.836C136.531 133.237 137.352 133.438 138.336 133.438C139.302 133.438 140.104 133.237 140.742 132.836C141.398 132.435 141.918 131.879 142.301 131.168C142.684 130.439 142.957 129.591 143.121 128.625C143.285 127.659 143.367 126.62 143.367 125.508V124.934C143.367 123.858 143.285 122.846 143.121 121.898C142.957 120.932 142.684 120.085 142.301 119.355C141.918 118.608 141.398 118.025 140.742 117.605C140.086 117.186 139.266 116.977 138.281 116.977C137.315 116.977 136.504 117.186 135.848 117.605C135.21 118.025 134.699 118.608 134.316 119.355C133.934 120.085 133.66 120.932 133.496 121.898C133.332 122.846 133.25 123.858 133.25 124.934ZM173.965 132.809V110.414H183.207V140H174.566L173.965 132.809ZM174.84 126.793L177.246 126.738C177.246 128.725 177.009 130.566 176.535 132.262C176.061 133.939 175.359 135.397 174.43 136.637C173.518 137.876 172.388 138.842 171.039 139.535C169.708 140.21 168.168 140.547 166.418 140.547C164.96 140.547 163.62 140.346 162.398 139.945C161.195 139.526 160.156 138.879 159.281 138.004C158.406 137.111 157.723 135.971 157.23 134.586C156.757 133.182 156.52 131.505 156.52 129.555V110.414H165.734V129.609C165.734 130.266 165.816 130.831 165.98 131.305C166.145 131.779 166.382 132.18 166.691 132.508C167.001 132.818 167.384 133.055 167.84 133.219C168.314 133.365 168.852 133.438 169.453 133.438C170.839 133.438 171.923 133.146 172.707 132.562C173.491 131.979 174.038 131.186 174.348 130.184C174.676 129.181 174.84 128.051 174.84 126.793ZM197.59 117.742V140H188.375V110.414H196.988L197.59 117.742ZM206.34 110.195L206.176 118.754C205.811 118.717 205.319 118.672 204.699 118.617C204.079 118.562 203.56 118.535 203.141 118.535C202.065 118.535 201.135 118.663 200.352 118.918C199.586 119.155 198.948 119.52 198.438 120.012C197.945 120.486 197.581 121.087 197.344 121.816C197.125 122.546 197.025 123.393 197.043 124.359L195.375 123.266C195.375 121.279 195.566 119.474 195.949 117.852C196.35 116.211 196.915 114.798 197.645 113.613C198.374 112.41 199.258 111.49 200.297 110.852C201.336 110.195 202.503 109.867 203.797 109.867C204.253 109.867 204.699 109.895 205.137 109.949C205.592 110.004 205.993 110.086 206.34 110.195ZM219.246 110.414V140H210.004V110.414H219.246ZM209.457 102.785C209.457 101.473 209.931 100.397 210.879 99.5586C211.827 98.7201 213.057 98.3008 214.57 98.3008C216.083 98.3008 217.314 98.7201 218.262 99.5586C219.21 100.397 219.684 101.473 219.684 102.785C219.684 104.098 219.21 105.173 218.262 106.012C217.314 106.85 216.083 107.27 214.57 107.27C213.057 107.27 211.827 106.85 210.879 106.012C209.931 105.173 209.457 104.098 209.457 102.785ZM235.598 133.684L241.422 110.414H251.129L241.449 140H235.707L235.598 133.684ZM232.152 110.414L237.895 133.684L237.84 140H232.07L222.418 110.414H232.152ZM252.277 125.508V124.934C252.277 122.764 252.587 120.768 253.207 118.945C253.827 117.104 254.738 115.509 255.941 114.16C257.145 112.811 258.63 111.763 260.398 111.016C262.167 110.25 264.208 109.867 266.523 109.867C268.857 109.867 270.908 110.25 272.676 111.016C274.462 111.763 275.957 112.811 277.16 114.16C278.363 115.509 279.275 117.104 279.895 118.945C280.514 120.768 280.824 122.764 280.824 124.934V125.508C280.824 127.659 280.514 129.655 279.895 131.496C279.275 133.319 278.363 134.914 277.16 136.281C275.957 137.63 274.471 138.678 272.703 139.426C270.935 140.173 268.893 140.547 266.578 140.547C264.263 140.547 262.212 140.173 260.426 139.426C258.639 138.678 257.145 137.63 255.941 136.281C254.738 134.914 253.827 133.319 253.207 131.496C252.587 129.655 252.277 127.659 252.277 125.508ZM261.492 124.934V125.508C261.492 126.62 261.574 127.659 261.738 128.625C261.902 129.591 262.176 130.439 262.559 131.168C262.941 131.879 263.461 132.435 264.117 132.836C264.773 133.237 265.594 133.438 266.578 133.438C267.544 133.438 268.346 133.237 268.984 132.836C269.641 132.435 270.16 131.879 270.543 131.168C270.926 130.439 271.199 129.591 271.363 128.625C271.527 127.659 271.609 126.62 271.609 125.508V124.934C271.609 123.858 271.527 122.846 271.363 121.898C271.199 120.932 270.926 120.085 270.543 119.355C270.16 118.608 269.641 118.025 268.984 117.605C268.328 117.186 267.508 116.977 266.523 116.977C265.557 116.977 264.746 117.186 264.09 117.605C263.452 118.025 262.941 118.608 262.559 119.355C262.176 120.085 261.902 120.932 261.738 121.898C261.574 122.846 261.492 123.858 261.492 124.934Z" fill="black"/>
<rect x="93" y="178" width="917" height="77" rx="10" fill="#D3D3D3"/>
<rect x="111" y="196" width="91" height="41" rx="3" fill="#424242"/>
<rect x="111" y="196" width="91" height="41" rx="3" stroke="#424242" stroke-width="4"/>
<path d="M134.141 210.203H139.177C140.161 210.203 141.017 210.35 141.743 210.643C142.47 210.936 143.029 211.369 143.422 211.943C143.82 212.518 144.02 213.227 144.02 214.07C144.02 214.803 143.905 215.415 143.677 215.907C143.448 216.399 143.129 216.807 142.719 217.129C142.314 217.445 141.843 217.706 141.304 217.911L140.293 218.482H136.065L136.048 216.101H139.177C139.569 216.101 139.895 216.03 140.152 215.89C140.41 215.749 140.604 215.55 140.732 215.292C140.867 215.028 140.935 214.715 140.935 214.352C140.935 213.982 140.867 213.666 140.732 213.402C140.598 213.139 140.398 212.937 140.135 212.796C139.877 212.655 139.558 212.585 139.177 212.585H137.226V223H134.141V210.203ZM141.146 223L138.315 217.34L141.585 217.322L144.45 222.868V223H141.146ZM150.348 223.176C149.574 223.176 148.883 223.056 148.273 222.815C147.664 222.569 147.148 222.232 146.727 221.805C146.311 221.377 145.991 220.885 145.769 220.328C145.552 219.771 145.443 219.183 145.443 218.562V218.228C145.443 217.53 145.54 216.886 145.733 216.294C145.927 215.696 146.214 215.175 146.595 214.729C146.976 214.284 147.453 213.938 148.027 213.692C148.602 213.44 149.27 213.314 150.031 213.314C150.705 213.314 151.309 213.423 151.842 213.64C152.375 213.856 152.826 214.167 153.195 214.571C153.57 214.976 153.854 215.465 154.048 216.039C154.247 216.613 154.347 217.258 154.347 217.973V219.177H146.577V217.322H151.455V217.094C151.461 216.777 151.405 216.508 151.288 216.285C151.177 216.062 151.013 215.893 150.796 215.775C150.579 215.658 150.315 215.6 150.005 215.6C149.683 215.6 149.416 215.67 149.205 215.811C149 215.951 148.839 216.145 148.722 216.391C148.61 216.631 148.531 216.909 148.484 217.226C148.438 217.542 148.414 217.876 148.414 218.228V218.562C148.414 218.913 148.461 219.232 148.555 219.52C148.654 219.807 148.795 220.053 148.977 220.258C149.164 220.457 149.387 220.612 149.645 220.724C149.908 220.835 150.207 220.891 150.541 220.891C150.945 220.891 151.344 220.814 151.736 220.662C152.129 220.51 152.466 220.258 152.747 219.906L154.092 221.506C153.898 221.781 153.623 222.048 153.266 222.306C152.914 222.563 152.492 222.774 152 222.938C151.508 223.097 150.957 223.176 150.348 223.176ZM160.49 220.609V216.689C160.49 216.42 160.452 216.188 160.376 215.995C160.3 215.802 160.18 215.652 160.016 215.547C159.852 215.436 159.632 215.38 159.356 215.38C159.134 215.38 158.943 215.418 158.785 215.494C158.627 215.57 158.507 215.685 158.425 215.837C158.343 215.989 158.302 216.183 158.302 216.417H155.34C155.34 215.978 155.437 215.57 155.63 215.195C155.829 214.814 156.11 214.483 156.474 214.202C156.843 213.921 157.282 213.704 157.792 213.552C158.308 213.394 158.882 213.314 159.515 213.314C160.271 213.314 160.944 213.44 161.536 213.692C162.134 213.944 162.605 214.322 162.951 214.826C163.297 215.324 163.47 215.951 163.47 216.707V220.601C163.47 221.222 163.505 221.693 163.575 222.016C163.646 222.332 163.745 222.61 163.874 222.851V223H160.903C160.763 222.707 160.657 222.35 160.587 221.928C160.522 221.5 160.49 221.061 160.49 220.609ZM160.851 217.19L160.868 218.772H159.559C159.283 218.772 159.049 218.811 158.855 218.887C158.668 218.963 158.516 219.068 158.398 219.203C158.287 219.332 158.205 219.479 158.152 219.643C158.105 219.807 158.082 219.979 158.082 220.161C158.082 220.337 158.123 220.495 158.205 220.636C158.293 220.771 158.41 220.876 158.557 220.952C158.703 221.028 158.867 221.066 159.049 221.066C159.377 221.066 159.655 221.005 159.884 220.882C160.118 220.753 160.297 220.598 160.42 220.416C160.543 220.234 160.604 220.064 160.604 219.906L161.255 221.119C161.138 221.354 161.003 221.591 160.851 221.831C160.704 222.071 160.52 222.294 160.297 222.499C160.08 222.698 159.813 222.862 159.497 222.991C159.181 223.114 158.797 223.176 158.346 223.176C157.76 223.176 157.221 223.056 156.729 222.815C156.242 222.575 155.853 222.241 155.56 221.813C155.267 221.38 155.12 220.882 155.12 220.319C155.12 219.827 155.208 219.388 155.384 219.001C155.565 218.614 155.838 218.286 156.201 218.017C156.564 217.747 157.027 217.542 157.59 217.401C158.152 217.261 158.814 217.19 159.576 217.19H160.851ZM169.13 220.891C169.405 220.891 169.64 220.841 169.833 220.741C170.032 220.636 170.182 220.489 170.281 220.302C170.387 220.108 170.437 219.877 170.431 219.607H173.217C173.223 220.322 173.047 220.949 172.689 221.488C172.338 222.021 171.857 222.438 171.248 222.736C170.645 223.029 169.962 223.176 169.2 223.176C168.456 223.176 167.806 223.056 167.249 222.815C166.692 222.569 166.227 222.229 165.852 221.796C165.482 221.356 165.204 220.844 165.017 220.258C164.835 219.672 164.744 219.036 164.744 218.351V218.148C164.744 217.463 164.835 216.827 165.017 216.241C165.204 215.649 165.482 215.137 165.852 214.703C166.227 214.264 166.689 213.924 167.24 213.684C167.797 213.438 168.444 213.314 169.183 213.314C169.974 213.314 170.671 213.464 171.274 213.763C171.884 214.062 172.361 214.495 172.707 215.063C173.053 215.632 173.223 216.32 173.217 217.129H170.431C170.437 216.842 170.393 216.584 170.299 216.355C170.205 216.127 170.059 215.945 169.859 215.811C169.666 215.67 169.417 215.6 169.112 215.6C168.808 215.6 168.562 215.667 168.374 215.802C168.187 215.937 168.043 216.124 167.943 216.364C167.85 216.599 167.785 216.868 167.75 217.173C167.721 217.478 167.706 217.803 167.706 218.148V218.351C167.706 218.702 167.721 219.033 167.75 219.344C167.785 219.648 167.853 219.918 167.952 220.152C168.052 220.381 168.195 220.562 168.383 220.697C168.57 220.826 168.819 220.891 169.13 220.891ZM179.492 213.49V215.547H173.762V213.49H179.492ZM174.966 211.126H177.928V219.897C177.928 220.149 177.957 220.346 178.016 220.486C178.074 220.621 178.174 220.718 178.314 220.776C178.461 220.829 178.654 220.855 178.895 220.855C179.064 220.855 179.205 220.853 179.316 220.847C179.428 220.835 179.533 220.82 179.633 220.803V222.921C179.381 223.003 179.117 223.064 178.842 223.105C178.566 223.152 178.273 223.176 177.963 223.176C177.33 223.176 176.788 223.076 176.337 222.877C175.892 222.678 175.552 222.364 175.317 221.937C175.083 221.509 174.966 220.952 174.966 220.267V211.126Z" fill="white"/>
<rect x="222" y="196" width="130" height="41" rx="3" fill="#424242"/>
<rect x="222" y="196" width="130" height="41" rx="3" stroke="#424242" stroke-width="4"/>
<path d="M253.883 220.627V223H247.062V220.627H253.883ZM248.161 210.203V223H245.076V210.203H248.161ZM253.004 215.283V217.577H247.062V215.283H253.004ZM253.909 210.203V212.585H247.062V210.203H253.909ZM257.521 213.49L258.857 216.109L260.237 213.49H263.313L260.817 218.122L263.445 223H260.343L258.857 220.188L257.381 223H254.278L256.906 218.122L254.419 213.49H257.521ZM267.277 215.318V226.656H264.315V213.49H267.075L267.277 215.318ZM273.113 218.131V218.315C273.113 219.007 273.034 219.648 272.876 220.24C272.718 220.832 272.483 221.348 272.173 221.787C271.862 222.227 271.476 222.569 271.013 222.815C270.556 223.056 270.025 223.176 269.422 223.176C268.854 223.176 268.364 223.05 267.954 222.798C267.544 222.546 267.201 222.197 266.926 221.752C266.65 221.307 266.428 220.797 266.258 220.223C266.088 219.648 265.953 219.042 265.854 218.403V218.166C265.953 217.48 266.088 216.845 266.258 216.259C266.428 215.667 266.65 215.151 266.926 214.712C267.201 214.272 267.541 213.93 267.945 213.684C268.355 213.438 268.845 213.314 269.413 213.314C270.017 213.314 270.547 213.429 271.004 213.657C271.467 213.886 271.854 214.214 272.164 214.642C272.48 215.063 272.718 215.57 272.876 216.162C273.034 216.754 273.113 217.41 273.113 218.131ZM270.151 218.315V218.131C270.151 217.762 270.125 217.425 270.072 217.12C270.02 216.81 269.935 216.54 269.817 216.312C269.706 216.083 269.557 215.907 269.369 215.784C269.182 215.661 268.95 215.6 268.675 215.6C268.358 215.6 268.092 215.649 267.875 215.749C267.664 215.843 267.494 215.989 267.365 216.188C267.242 216.382 267.154 216.625 267.102 216.918C267.055 217.205 267.034 217.542 267.04 217.929V218.649C267.028 219.095 267.072 219.487 267.172 219.827C267.271 220.161 267.444 220.422 267.69 220.609C267.937 220.797 268.271 220.891 268.692 220.891C268.974 220.891 269.208 220.826 269.396 220.697C269.583 220.562 269.732 220.378 269.844 220.144C269.955 219.903 270.034 219.628 270.081 219.317C270.128 219.007 270.151 218.673 270.151 218.315ZM277.42 215.846V223H274.458V213.49H277.227L277.42 215.846ZM280.232 213.42L280.18 216.171C280.062 216.159 279.904 216.145 279.705 216.127C279.506 216.109 279.339 216.101 279.204 216.101C278.858 216.101 278.56 216.142 278.308 216.224C278.062 216.3 277.856 216.417 277.692 216.575C277.534 216.728 277.417 216.921 277.341 217.155C277.271 217.39 277.238 217.662 277.244 217.973L276.708 217.621C276.708 216.982 276.77 216.402 276.893 215.881C277.021 215.354 277.203 214.899 277.438 214.519C277.672 214.132 277.956 213.836 278.29 213.631C278.624 213.42 278.999 213.314 279.415 213.314C279.562 213.314 279.705 213.323 279.846 213.341C279.992 213.358 280.121 213.385 280.232 213.42ZM285.682 223.176C284.908 223.176 284.217 223.056 283.607 222.815C282.998 222.569 282.482 222.232 282.061 221.805C281.645 221.377 281.325 220.885 281.103 220.328C280.886 219.771 280.777 219.183 280.777 218.562V218.228C280.777 217.53 280.874 216.886 281.067 216.294C281.261 215.696 281.548 215.175 281.929 214.729C282.31 214.284 282.787 213.938 283.361 213.692C283.936 213.44 284.604 213.314 285.365 213.314C286.039 213.314 286.643 213.423 287.176 213.64C287.709 213.856 288.16 214.167 288.529 214.571C288.904 214.976 289.188 215.465 289.382 216.039C289.581 216.613 289.681 217.258 289.681 217.973V219.177H281.911V217.322H286.789V217.094C286.795 216.777 286.739 216.508 286.622 216.285C286.511 216.062 286.347 215.893 286.13 215.775C285.913 215.658 285.649 215.6 285.339 215.6C285.017 215.6 284.75 215.67 284.539 215.811C284.334 215.951 284.173 216.145 284.056 216.391C283.944 216.631 283.865 216.909 283.818 217.226C283.771 217.542 283.748 217.876 283.748 218.228V218.562C283.748 218.913 283.795 219.232 283.889 219.52C283.988 219.807 284.129 220.053 284.311 220.258C284.498 220.457 284.721 220.612 284.979 220.724C285.242 220.835 285.541 220.891 285.875 220.891C286.279 220.891 286.678 220.814 287.07 220.662C287.463 220.51 287.8 220.258 288.081 219.906L289.426 221.506C289.232 221.781 288.957 222.048 288.6 222.306C288.248 222.563 287.826 222.774 287.334 222.938C286.842 223.097 286.291 223.176 285.682 223.176ZM295.868 220.328C295.868 220.164 295.812 220.023 295.701 219.906C295.596 219.783 295.408 219.672 295.139 219.572C294.869 219.467 294.491 219.361 294.005 219.256C293.542 219.156 293.105 219.024 292.695 218.86C292.291 218.696 291.937 218.497 291.632 218.263C291.327 218.028 291.087 217.75 290.911 217.428C290.741 217.105 290.656 216.736 290.656 216.32C290.656 215.916 290.741 215.535 290.911 215.178C291.087 214.814 291.342 214.495 291.676 214.22C292.016 213.938 292.429 213.719 292.915 213.561C293.401 213.396 293.955 213.314 294.576 213.314C295.432 213.314 296.17 213.446 296.791 213.71C297.412 213.968 297.89 214.331 298.224 214.8C298.563 215.263 298.733 215.799 298.733 216.408H295.771C295.771 216.168 295.73 215.963 295.648 215.793C295.572 215.623 295.446 215.494 295.271 215.406C295.095 215.312 294.86 215.266 294.567 215.266C294.362 215.266 294.175 215.304 294.005 215.38C293.841 215.456 293.709 215.562 293.609 215.696C293.51 215.831 293.46 215.989 293.46 216.171C293.46 216.3 293.489 216.417 293.548 216.522C293.612 216.622 293.709 216.716 293.838 216.804C293.967 216.886 294.131 216.962 294.33 217.032C294.529 217.097 294.77 217.155 295.051 217.208C295.689 217.325 296.287 217.492 296.844 217.709C297.4 217.926 297.852 218.233 298.197 218.632C298.549 219.03 298.725 219.566 298.725 220.24C298.725 220.662 298.628 221.052 298.435 221.409C298.241 221.761 297.963 222.071 297.6 222.341C297.236 222.604 296.8 222.81 296.29 222.956C295.78 223.103 295.206 223.176 294.567 223.176C293.659 223.176 292.892 223.015 292.265 222.692C291.638 222.364 291.163 221.954 290.841 221.462C290.524 220.964 290.366 220.46 290.366 219.95H293.126C293.138 220.243 293.208 220.483 293.337 220.671C293.472 220.858 293.65 220.996 293.873 221.084C294.096 221.172 294.354 221.216 294.646 221.216C294.916 221.216 295.139 221.178 295.314 221.102C295.496 221.025 295.634 220.923 295.728 220.794C295.821 220.659 295.868 220.504 295.868 220.328ZM305.097 220.328C305.097 220.164 305.041 220.023 304.93 219.906C304.824 219.783 304.637 219.672 304.367 219.572C304.098 219.467 303.72 219.361 303.233 219.256C302.771 219.156 302.334 219.024 301.924 218.86C301.52 218.696 301.165 218.497 300.86 218.263C300.556 218.028 300.315 217.75 300.14 217.428C299.97 217.105 299.885 216.736 299.885 216.32C299.885 215.916 299.97 215.535 300.14 215.178C300.315 214.814 300.57 214.495 300.904 214.22C301.244 213.938 301.657 213.719 302.144 213.561C302.63 213.396 303.184 213.314 303.805 213.314C304.66 213.314 305.398 213.446 306.02 213.71C306.641 213.968 307.118 214.331 307.452 214.8C307.792 215.263 307.962 215.799 307.962 216.408H305C305 216.168 304.959 215.963 304.877 215.793C304.801 215.623 304.675 215.494 304.499 215.406C304.323 215.312 304.089 215.266 303.796 215.266C303.591 215.266 303.403 215.304 303.233 215.38C303.069 215.456 302.938 215.562 302.838 215.696C302.738 215.831 302.688 215.989 302.688 216.171C302.688 216.3 302.718 216.417 302.776 216.522C302.841 216.622 302.938 216.716 303.066 216.804C303.195 216.886 303.359 216.962 303.559 217.032C303.758 217.097 303.998 217.155 304.279 217.208C304.918 217.325 305.516 217.492 306.072 217.709C306.629 217.926 307.08 218.233 307.426 218.632C307.777 219.03 307.953 219.566 307.953 220.24C307.953 220.662 307.856 221.052 307.663 221.409C307.47 221.761 307.191 222.071 306.828 222.341C306.465 222.604 306.028 222.81 305.519 222.956C305.009 223.103 304.435 223.176 303.796 223.176C302.888 223.176 302.12 223.015 301.493 222.692C300.866 222.364 300.392 221.954 300.069 221.462C299.753 220.964 299.595 220.46 299.595 219.95H302.354C302.366 220.243 302.437 220.483 302.565 220.671C302.7 220.858 302.879 220.996 303.102 221.084C303.324 221.172 303.582 221.216 303.875 221.216C304.145 221.216 304.367 221.178 304.543 221.102C304.725 221.025 304.862 220.923 304.956 220.794C305.05 220.659 305.097 220.504 305.097 220.328ZM314.571 218.983V210.203H317.647V218.983C317.647 219.839 317.451 220.58 317.059 221.207C316.672 221.834 316.145 222.32 315.477 222.666C314.814 223.006 314.07 223.176 313.244 223.176C312.389 223.176 311.627 223.032 310.959 222.745C310.297 222.458 309.775 222.016 309.395 221.418C309.02 220.82 308.832 220.059 308.832 219.133H311.926C311.926 219.566 311.976 219.906 312.075 220.152C312.175 220.393 312.321 220.562 312.515 220.662C312.714 220.756 312.957 220.803 313.244 220.803C313.525 220.803 313.763 220.732 313.956 220.592C314.155 220.445 314.308 220.237 314.413 219.968C314.519 219.692 314.571 219.364 314.571 218.983ZM326.199 219.599C326.199 219.399 326.17 219.221 326.111 219.062C326.053 218.898 325.944 218.746 325.786 218.605C325.628 218.465 325.399 218.324 325.101 218.184C324.808 218.037 324.421 217.885 323.94 217.727C323.378 217.539 322.836 217.328 322.314 217.094C321.793 216.854 321.327 216.575 320.917 216.259C320.507 215.937 320.182 215.562 319.941 215.134C319.701 214.7 319.581 214.196 319.581 213.622C319.581 213.071 319.704 212.576 319.95 212.137C320.196 211.691 320.539 211.313 320.979 211.003C321.424 210.687 321.945 210.446 322.543 210.282C323.141 210.112 323.794 210.027 324.503 210.027C325.44 210.027 326.267 210.191 326.981 210.52C327.702 210.842 328.265 211.302 328.669 211.899C329.079 212.491 329.284 213.191 329.284 214H326.217C326.217 213.678 326.149 213.394 326.015 213.147C325.886 212.901 325.689 212.708 325.426 212.567C325.162 212.427 324.831 212.356 324.433 212.356C324.046 212.356 323.721 212.415 323.457 212.532C323.193 212.649 322.994 212.808 322.859 213.007C322.725 213.2 322.657 213.414 322.657 213.648C322.657 213.842 322.71 214.018 322.815 214.176C322.927 214.328 323.082 214.472 323.281 214.606C323.486 214.741 323.732 214.87 324.02 214.993C324.312 215.116 324.641 215.236 325.004 215.354C325.684 215.57 326.287 215.813 326.814 216.083C327.348 216.347 327.796 216.648 328.159 216.988C328.528 217.322 328.807 217.703 328.994 218.131C329.188 218.559 329.284 219.042 329.284 219.581C329.284 220.155 329.173 220.665 328.95 221.11C328.728 221.556 328.408 221.934 327.992 222.244C327.576 222.549 327.078 222.78 326.498 222.938C325.918 223.097 325.271 223.176 324.556 223.176C323.899 223.176 323.252 223.094 322.613 222.93C321.98 222.76 321.406 222.502 320.891 222.156C320.375 221.805 319.962 221.356 319.651 220.812C319.347 220.261 319.194 219.607 319.194 218.852H322.288C322.288 219.227 322.338 219.543 322.438 219.801C322.537 220.059 322.684 220.267 322.877 220.425C323.07 220.577 323.308 220.688 323.589 220.759C323.87 220.823 324.192 220.855 324.556 220.855C324.948 220.855 325.265 220.8 325.505 220.688C325.745 220.571 325.921 220.419 326.032 220.231C326.144 220.038 326.199 219.827 326.199 219.599Z" fill="white"/>
<rect x="372" y="196" width="109" height="41" rx="3" fill="#424242"/>
<rect x="372" y="196" width="109" height="41" rx="3" stroke="#424242" stroke-width="4"/>
<path d="M406.118 210.203V223H403.042L398.516 215.037V223H395.431V210.203H398.516L403.042 218.166V210.203H406.118ZM407.56 218.342V218.157C407.56 217.46 407.659 216.818 407.858 216.232C408.058 215.641 408.351 215.128 408.737 214.694C409.124 214.261 409.602 213.924 410.17 213.684C410.738 213.438 411.395 213.314 412.139 213.314C412.889 213.314 413.548 213.438 414.116 213.684C414.69 213.924 415.171 214.261 415.558 214.694C415.944 215.128 416.237 215.641 416.437 216.232C416.636 216.818 416.735 217.46 416.735 218.157V218.342C416.735 219.033 416.636 219.675 416.437 220.267C416.237 220.853 415.944 221.365 415.558 221.805C415.171 222.238 414.693 222.575 414.125 222.815C413.557 223.056 412.9 223.176 412.156 223.176C411.412 223.176 410.753 223.056 410.179 222.815C409.604 222.575 409.124 222.238 408.737 221.805C408.351 221.365 408.058 220.853 407.858 220.267C407.659 219.675 407.56 219.033 407.56 218.342ZM410.521 218.157V218.342C410.521 218.699 410.548 219.033 410.601 219.344C410.653 219.654 410.741 219.927 410.864 220.161C410.987 220.39 411.154 220.568 411.365 220.697C411.576 220.826 411.84 220.891 412.156 220.891C412.467 220.891 412.725 220.826 412.93 220.697C413.141 220.568 413.308 220.39 413.431 220.161C413.554 219.927 413.642 219.654 413.694 219.344C413.747 219.033 413.773 218.699 413.773 218.342V218.157C413.773 217.812 413.747 217.486 413.694 217.182C413.642 216.871 413.554 216.599 413.431 216.364C413.308 216.124 413.141 215.937 412.93 215.802C412.719 215.667 412.455 215.6 412.139 215.6C411.828 215.6 411.567 215.667 411.356 215.802C411.151 215.937 410.987 216.124 410.864 216.364C410.741 216.599 410.653 216.871 410.601 217.182C410.548 217.486 410.521 217.812 410.521 218.157ZM423.521 220.82V209.5H426.5V223H423.828L423.521 220.82ZM417.685 218.359V218.175C417.685 217.454 417.764 216.798 417.922 216.206C418.08 215.608 418.314 215.096 418.625 214.668C418.936 214.234 419.322 213.9 419.785 213.666C420.248 213.432 420.781 213.314 421.385 213.314C421.924 213.314 422.396 213.44 422.8 213.692C423.204 213.938 423.55 214.284 423.837 214.729C424.124 215.175 424.358 215.696 424.54 216.294C424.722 216.886 424.859 217.524 424.953 218.21V218.43C424.859 219.074 424.722 219.684 424.54 220.258C424.358 220.826 424.124 221.33 423.837 221.77C423.55 222.209 423.201 222.555 422.791 222.807C422.387 223.053 421.912 223.176 421.367 223.176C420.764 223.176 420.23 223.056 419.768 222.815C419.311 222.575 418.927 222.238 418.616 221.805C418.312 221.371 418.08 220.861 417.922 220.275C417.764 219.689 417.685 219.051 417.685 218.359ZM420.646 218.175V218.359C420.646 218.717 420.67 219.048 420.717 219.353C420.764 219.657 420.843 219.927 420.954 220.161C421.071 220.39 421.224 220.568 421.411 220.697C421.604 220.826 421.842 220.891 422.123 220.891C422.504 220.891 422.817 220.8 423.063 220.618C423.315 220.437 423.5 220.179 423.617 219.845C423.74 219.511 423.793 219.118 423.775 218.667V217.973C423.787 217.586 423.761 217.246 423.696 216.953C423.632 216.654 423.529 216.405 423.389 216.206C423.254 216.007 423.081 215.857 422.87 215.758C422.665 215.652 422.422 215.6 422.141 215.6C421.865 215.6 421.631 215.664 421.438 215.793C421.25 215.922 421.098 216.104 420.98 216.338C420.863 216.566 420.778 216.839 420.726 217.155C420.673 217.466 420.646 217.806 420.646 218.175ZM432.784 223.176C432.011 223.176 431.319 223.056 430.71 222.815C430.101 222.569 429.585 222.232 429.163 221.805C428.747 221.377 428.428 220.885 428.205 220.328C427.988 219.771 427.88 219.183 427.88 218.562V218.228C427.88 217.53 427.977 216.886 428.17 216.294C428.363 215.696 428.65 215.175 429.031 214.729C429.412 214.284 429.89 213.938 430.464 213.692C431.038 213.44 431.706 213.314 432.468 213.314C433.142 213.314 433.745 213.423 434.278 213.64C434.812 213.856 435.263 214.167 435.632 214.571C436.007 214.976 436.291 215.465 436.484 216.039C436.684 216.613 436.783 217.258 436.783 217.973V219.177H429.014V217.322H433.892V217.094C433.897 216.777 433.842 216.508 433.725 216.285C433.613 216.062 433.449 215.893 433.232 215.775C433.016 215.658 432.752 215.6 432.441 215.6C432.119 215.6 431.853 215.67 431.642 215.811C431.437 215.951 431.275 216.145 431.158 216.391C431.047 216.631 430.968 216.909 430.921 217.226C430.874 217.542 430.851 217.876 430.851 218.228V218.562C430.851 218.913 430.897 219.232 430.991 219.52C431.091 219.807 431.231 220.053 431.413 220.258C431.601 220.457 431.823 220.612 432.081 220.724C432.345 220.835 432.644 220.891 432.978 220.891C433.382 220.891 433.78 220.814 434.173 220.662C434.565 220.51 434.902 220.258 435.184 219.906L436.528 221.506C436.335 221.781 436.06 222.048 435.702 222.306C435.351 222.563 434.929 222.774 434.437 222.938C433.944 223.097 433.394 223.176 432.784 223.176ZM443.217 218.983V210.203H446.293V218.983C446.293 219.839 446.097 220.58 445.704 221.207C445.317 221.834 444.79 222.32 444.122 222.666C443.46 223.006 442.716 223.176 441.89 223.176C441.034 223.176 440.272 223.032 439.604 222.745C438.942 222.458 438.421 222.016 438.04 221.418C437.665 220.82 437.478 220.059 437.478 219.133H440.571C440.571 219.566 440.621 219.906 440.721 220.152C440.82 220.393 440.967 220.562 441.16 220.662C441.359 220.756 441.603 220.803 441.89 220.803C442.171 220.803 442.408 220.732 442.602 220.592C442.801 220.445 442.953 220.237 443.059 219.968C443.164 219.692 443.217 219.364 443.217 218.983ZM454.845 219.599C454.845 219.399 454.815 219.221 454.757 219.062C454.698 218.898 454.59 218.746 454.432 218.605C454.273 218.465 454.045 218.324 453.746 218.184C453.453 218.037 453.066 217.885 452.586 217.727C452.023 217.539 451.481 217.328 450.96 217.094C450.438 216.854 449.973 216.575 449.562 216.259C449.152 215.937 448.827 215.562 448.587 215.134C448.347 214.7 448.227 214.196 448.227 213.622C448.227 213.071 448.35 212.576 448.596 212.137C448.842 211.691 449.185 211.313 449.624 211.003C450.069 210.687 450.591 210.446 451.188 210.282C451.786 210.112 452.439 210.027 453.148 210.027C454.086 210.027 454.912 210.191 455.627 210.52C456.348 210.842 456.91 211.302 457.314 211.899C457.725 212.491 457.93 213.191 457.93 214H454.862C454.862 213.678 454.795 213.394 454.66 213.147C454.531 212.901 454.335 212.708 454.071 212.567C453.808 212.427 453.477 212.356 453.078 212.356C452.691 212.356 452.366 212.415 452.103 212.532C451.839 212.649 451.64 212.808 451.505 213.007C451.37 213.2 451.303 213.414 451.303 213.648C451.303 213.842 451.355 214.018 451.461 214.176C451.572 214.328 451.728 214.472 451.927 214.606C452.132 214.741 452.378 214.87 452.665 214.993C452.958 215.116 453.286 215.236 453.649 215.354C454.329 215.57 454.933 215.813 455.46 216.083C455.993 216.347 456.441 216.648 456.805 216.988C457.174 217.322 457.452 217.703 457.64 218.131C457.833 218.559 457.93 219.042 457.93 219.581C457.93 220.155 457.818 220.665 457.596 221.11C457.373 221.556 457.054 221.934 456.638 222.244C456.222 222.549 455.724 222.78 455.144 222.938C454.563 223.097 453.916 223.176 453.201 223.176C452.545 223.176 451.897 223.094 451.259 222.93C450.626 222.76 450.052 222.502 449.536 222.156C449.021 221.805 448.607 221.356 448.297 220.812C447.992 220.261 447.84 219.607 447.84 218.852H450.934C450.934 219.227 450.983 219.543 451.083 219.801C451.183 220.059 451.329 220.267 451.522 220.425C451.716 220.577 451.953 220.688 452.234 220.759C452.516 220.823 452.838 220.855 453.201 220.855C453.594 220.855 453.91 220.8 454.15 220.688C454.391 220.571 454.566 220.419 454.678 220.231C454.789 220.038 454.845 219.827 454.845 219.599Z" fill="white"/>
<rect x="501" y="196" width="154" height="41" rx="3" fill="#424242"/>
<rect x="501" y="196" width="154" height="41" rx="3" stroke="#424242" stroke-width="4"/>
<path d="M525.644 210.203H528.157L531.014 219.106L533.87 210.203H536.384L532.033 223H529.994L525.644 210.203ZM524.114 210.203H526.716L527.199 220.012V223H524.114V210.203ZM535.312 210.203H537.922V223H534.828V220.012L535.312 210.203ZM544.698 220.609V216.689C544.698 216.42 544.66 216.188 544.584 215.995C544.508 215.802 544.388 215.652 544.224 215.547C544.06 215.436 543.84 215.38 543.564 215.38C543.342 215.38 543.151 215.418 542.993 215.494C542.835 215.57 542.715 215.685 542.633 215.837C542.551 215.989 542.51 216.183 542.51 216.417H539.548C539.548 215.978 539.645 215.57 539.838 215.195C540.037 214.814 540.318 214.483 540.682 214.202C541.051 213.921 541.49 213.704 542 213.552C542.516 213.394 543.09 213.314 543.723 213.314C544.479 213.314 545.152 213.44 545.744 213.692C546.342 213.944 546.813 214.322 547.159 214.826C547.505 215.324 547.678 215.951 547.678 216.707V220.601C547.678 221.222 547.713 221.693 547.783 222.016C547.854 222.332 547.953 222.61 548.082 222.851V223H545.111C544.971 222.707 544.865 222.35 544.795 221.928C544.73 221.5 544.698 221.061 544.698 220.609ZM545.059 217.19L545.076 218.772H543.767C543.491 218.772 543.257 218.811 543.063 218.887C542.876 218.963 542.724 219.068 542.606 219.203C542.495 219.332 542.413 219.479 542.36 219.643C542.313 219.807 542.29 219.979 542.29 220.161C542.29 220.337 542.331 220.495 542.413 220.636C542.501 220.771 542.618 220.876 542.765 220.952C542.911 221.028 543.075 221.066 543.257 221.066C543.585 221.066 543.863 221.005 544.092 220.882C544.326 220.753 544.505 220.598 544.628 220.416C544.751 220.234 544.812 220.064 544.812 219.906L545.463 221.119C545.346 221.354 545.211 221.591 545.059 221.831C544.912 222.071 544.728 222.294 544.505 222.499C544.288 222.698 544.021 222.862 543.705 222.991C543.389 223.114 543.005 223.176 542.554 223.176C541.968 223.176 541.429 223.056 540.937 222.815C540.45 222.575 540.061 222.241 539.768 221.813C539.475 221.38 539.328 220.882 539.328 220.319C539.328 219.827 539.416 219.388 539.592 219.001C539.773 218.614 540.046 218.286 540.409 218.017C540.772 217.747 541.235 217.542 541.798 217.401C542.36 217.261 543.022 217.19 543.784 217.19H545.059ZM552.31 215.318V226.656H549.348V213.49H552.107L552.31 215.318ZM558.146 218.131V218.315C558.146 219.007 558.066 219.648 557.908 220.24C557.75 220.832 557.516 221.348 557.205 221.787C556.895 222.227 556.508 222.569 556.045 222.815C555.588 223.056 555.058 223.176 554.454 223.176C553.886 223.176 553.396 223.05 552.986 222.798C552.576 222.546 552.233 222.197 551.958 221.752C551.683 221.307 551.46 220.797 551.29 220.223C551.12 219.648 550.985 219.042 550.886 218.403V218.166C550.985 217.48 551.12 216.845 551.29 216.259C551.46 215.667 551.683 215.151 551.958 214.712C552.233 214.272 552.573 213.93 552.978 213.684C553.388 213.438 553.877 213.314 554.445 213.314C555.049 213.314 555.579 213.429 556.036 213.657C556.499 213.886 556.886 214.214 557.196 214.642C557.513 215.063 557.75 215.57 557.908 216.162C558.066 216.754 558.146 217.41 558.146 218.131ZM555.184 218.315V218.131C555.184 217.762 555.157 217.425 555.104 217.12C555.052 216.81 554.967 216.54 554.85 216.312C554.738 216.083 554.589 215.907 554.401 215.784C554.214 215.661 553.982 215.6 553.707 215.6C553.391 215.6 553.124 215.649 552.907 215.749C552.696 215.843 552.526 215.989 552.397 216.188C552.274 216.382 552.187 216.625 552.134 216.918C552.087 217.205 552.066 217.542 552.072 217.929V218.649C552.061 219.095 552.104 219.487 552.204 219.827C552.304 220.161 552.477 220.422 552.723 220.609C552.969 220.797 553.303 220.891 553.725 220.891C554.006 220.891 554.24 220.826 554.428 220.697C554.615 220.562 554.765 220.378 554.876 220.144C554.987 219.903 555.066 219.628 555.113 219.317C555.16 219.007 555.184 218.673 555.184 218.315ZM569.308 217.56H566.012L565.994 215.538H568.666C569.146 215.538 569.53 215.485 569.817 215.38C570.104 215.269 570.312 215.107 570.441 214.896C570.576 214.686 570.644 214.422 570.644 214.105C570.644 213.742 570.576 213.449 570.441 213.227C570.307 213.004 570.093 212.843 569.8 212.743C569.513 212.638 569.141 212.585 568.684 212.585H567.172V223H564.087V210.203H568.684C569.475 210.203 570.181 210.276 570.802 210.423C571.423 210.563 571.95 210.78 572.384 211.073C572.823 211.366 573.157 211.735 573.386 212.181C573.614 212.62 573.729 213.139 573.729 213.736C573.729 214.258 573.617 214.747 573.395 215.204C573.172 215.661 572.8 216.033 572.278 216.32C571.763 216.602 571.057 216.748 570.16 216.76L569.308 217.56ZM569.185 223H565.265L566.319 220.627H569.185C569.606 220.627 569.943 220.562 570.195 220.434C570.453 220.299 570.638 220.123 570.749 219.906C570.866 219.684 570.925 219.438 570.925 219.168C570.925 218.84 570.869 218.556 570.758 218.315C570.652 218.075 570.482 217.891 570.248 217.762C570.014 217.627 569.7 217.56 569.308 217.56H566.715L566.732 215.538H569.835L570.556 216.347C571.411 216.312 572.088 216.432 572.586 216.707C573.09 216.982 573.45 217.346 573.667 217.797C573.884 218.248 573.992 218.72 573.992 219.212C573.992 220.05 573.811 220.75 573.447 221.312C573.09 221.875 572.554 222.297 571.839 222.578C571.124 222.859 570.239 223 569.185 223ZM575.196 218.342V218.157C575.196 217.46 575.296 216.818 575.495 216.232C575.694 215.641 575.987 215.128 576.374 214.694C576.761 214.261 577.238 213.924 577.807 213.684C578.375 213.438 579.031 213.314 579.775 213.314C580.525 213.314 581.185 213.438 581.753 213.684C582.327 213.924 582.808 214.261 583.194 214.694C583.581 215.128 583.874 215.641 584.073 216.232C584.272 216.818 584.372 217.46 584.372 218.157V218.342C584.372 219.033 584.272 219.675 584.073 220.267C583.874 220.853 583.581 221.365 583.194 221.805C582.808 222.238 582.33 222.575 581.762 222.815C581.193 223.056 580.537 223.176 579.793 223.176C579.049 223.176 578.39 223.056 577.815 222.815C577.241 222.575 576.761 222.238 576.374 221.805C575.987 221.365 575.694 220.853 575.495 220.267C575.296 219.675 575.196 219.033 575.196 218.342ZM578.158 218.157V218.342C578.158 218.699 578.185 219.033 578.237 219.344C578.29 219.654 578.378 219.927 578.501 220.161C578.624 220.39 578.791 220.568 579.002 220.697C579.213 220.826 579.477 220.891 579.793 220.891C580.104 220.891 580.361 220.826 580.566 220.697C580.777 220.568 580.944 220.39 581.067 220.161C581.19 219.927 581.278 219.654 581.331 219.344C581.384 219.033 581.41 218.699 581.41 218.342V218.157C581.41 217.812 581.384 217.486 581.331 217.182C581.278 216.871 581.19 216.599 581.067 216.364C580.944 216.124 580.777 215.937 580.566 215.802C580.355 215.667 580.092 215.6 579.775 215.6C579.465 215.6 579.204 215.667 578.993 215.802C578.788 215.937 578.624 216.124 578.501 216.364C578.378 216.599 578.29 216.871 578.237 217.182C578.185 217.486 578.158 217.812 578.158 218.157ZM588.011 213.49L589.347 216.109L590.727 213.49H593.803L591.307 218.122L593.935 223H590.832L589.347 220.188L587.87 223H584.768L587.396 218.122L584.908 213.49H588.011ZM605.993 219.599C605.993 219.399 605.964 219.221 605.905 219.062C605.847 218.898 605.738 218.746 605.58 218.605C605.422 218.465 605.193 218.324 604.895 218.184C604.602 218.037 604.215 217.885 603.734 217.727C603.172 217.539 602.63 217.328 602.108 217.094C601.587 216.854 601.121 216.575 600.711 216.259C600.301 215.937 599.976 215.562 599.735 215.134C599.495 214.7 599.375 214.196 599.375 213.622C599.375 213.071 599.498 212.576 599.744 212.137C599.99 211.691 600.333 211.313 600.772 211.003C601.218 210.687 601.739 210.446 602.337 210.282C602.935 210.112 603.588 210.027 604.297 210.027C605.234 210.027 606.061 210.191 606.775 210.52C607.496 210.842 608.059 211.302 608.463 211.899C608.873 212.491 609.078 213.191 609.078 214H606.011C606.011 213.678 605.943 213.394 605.809 213.147C605.68 212.901 605.483 212.708 605.22 212.567C604.956 212.427 604.625 212.356 604.227 212.356C603.84 212.356 603.515 212.415 603.251 212.532C602.987 212.649 602.788 212.808 602.653 213.007C602.519 213.2 602.451 213.414 602.451 213.648C602.451 213.842 602.504 214.018 602.609 214.176C602.721 214.328 602.876 214.472 603.075 214.606C603.28 214.741 603.526 214.87 603.813 214.993C604.106 215.116 604.435 215.236 604.798 215.354C605.478 215.57 606.081 215.813 606.608 216.083C607.142 216.347 607.59 216.648 607.953 216.988C608.322 217.322 608.601 217.703 608.788 218.131C608.981 218.559 609.078 219.042 609.078 219.581C609.078 220.155 608.967 220.665 608.744 221.11C608.521 221.556 608.202 221.934 607.786 222.244C607.37 222.549 606.872 222.78 606.292 222.938C605.712 223.097 605.064 223.176 604.35 223.176C603.693 223.176 603.046 223.094 602.407 222.93C601.774 222.76 601.2 222.502 600.685 222.156C600.169 221.805 599.756 221.356 599.445 220.812C599.141 220.261 598.988 219.607 598.988 218.852H602.082C602.082 219.227 602.132 219.543 602.231 219.801C602.331 220.059 602.478 220.267 602.671 220.425C602.864 220.577 603.102 220.688 603.383 220.759C603.664 220.823 603.986 220.855 604.35 220.855C604.742 220.855 605.059 220.8 605.299 220.688C605.539 220.571 605.715 220.419 605.826 220.231C605.938 220.038 605.993 219.827 605.993 219.599ZM614.826 223H611.987L612.005 220.627H614.826C615.412 220.627 615.907 220.486 616.312 220.205C616.722 219.924 617.032 219.505 617.243 218.948C617.46 218.386 617.568 217.694 617.568 216.874V216.32C617.568 215.705 617.507 215.166 617.384 214.703C617.267 214.234 617.091 213.845 616.856 213.534C616.622 213.218 616.329 212.98 615.978 212.822C615.632 212.664 615.233 212.585 614.782 212.585H611.935V210.203H614.782C615.649 210.203 616.443 210.353 617.164 210.651C617.891 210.944 618.518 211.366 619.045 211.917C619.578 212.462 619.988 213.109 620.275 213.859C620.568 214.604 620.715 215.43 620.715 216.338V216.874C620.715 217.776 620.568 218.603 620.275 219.353C619.988 220.103 619.581 220.75 619.054 221.295C618.526 221.84 617.902 222.262 617.182 222.561C616.467 222.854 615.682 223 614.826 223ZM613.754 210.203V223H610.669V210.203H613.754ZM625.408 210.203V223H622.323V210.203H625.408ZM633.046 210.203L628.089 216.689L625.188 219.862L624.626 217.032L626.48 214.22L629.24 210.203H633.046ZM629.398 223L626.094 217.234L628.493 215.468L633.046 223H629.398Z" fill="white"/>
<rect x="675" y="196" width="123" height="41" rx="3" fill="#424242"/>
<rect x="675" y="196" width="123" height="41" rx="3" stroke="#424242" stroke-width="4"/>
<path d="M701.282 215.503V223H698.32V213.49H701.098L701.282 215.503ZM700.922 217.92L700.245 217.938C700.245 217.27 700.324 216.654 700.482 216.092C700.641 215.529 700.875 215.04 701.186 214.624C701.496 214.208 701.877 213.886 702.328 213.657C702.785 213.429 703.312 213.314 703.91 213.314C704.326 213.314 704.704 213.379 705.044 213.508C705.384 213.631 705.677 213.827 705.923 214.097C706.169 214.36 706.356 214.706 706.485 215.134C706.62 215.556 706.688 216.062 706.688 216.654V223H703.726V217.032C703.726 216.628 703.679 216.323 703.585 216.118C703.497 215.913 703.368 215.775 703.198 215.705C703.028 215.635 702.82 215.6 702.574 215.6C702.316 215.6 702.085 215.658 701.88 215.775C701.675 215.893 701.499 216.057 701.353 216.268C701.212 216.473 701.104 216.716 701.027 216.997C700.957 217.278 700.922 217.586 700.922 217.92ZM706.354 217.92L705.527 217.938C705.527 217.27 705.601 216.654 705.747 216.092C705.899 215.529 706.125 215.04 706.424 214.624C706.729 214.208 707.106 213.886 707.558 213.657C708.009 213.429 708.533 213.314 709.131 213.314C709.564 213.314 709.963 213.379 710.326 213.508C710.689 213.637 711.003 213.845 711.267 214.132C711.53 214.419 711.735 214.8 711.882 215.274C712.028 215.743 712.102 216.323 712.102 217.015V223H709.131V217.015C709.131 216.622 709.084 216.326 708.99 216.127C708.902 215.922 708.773 215.784 708.604 215.714C708.434 215.638 708.231 215.6 707.997 215.6C707.716 215.6 707.473 215.658 707.268 215.775C707.062 215.893 706.89 216.057 706.749 216.268C706.614 216.473 706.515 216.716 706.45 216.997C706.386 217.278 706.354 217.586 706.354 217.92ZM713.429 218.342V218.157C713.429 217.46 713.528 216.818 713.728 216.232C713.927 215.641 714.22 215.128 714.606 214.694C714.993 214.261 715.471 213.924 716.039 213.684C716.607 213.438 717.264 213.314 718.008 213.314C718.758 213.314 719.417 213.438 719.985 213.684C720.56 213.924 721.04 214.261 721.427 214.694C721.813 215.128 722.106 215.641 722.306 216.232C722.505 216.818 722.604 217.46 722.604 218.157V218.342C722.604 219.033 722.505 219.675 722.306 220.267C722.106 220.853 721.813 221.365 721.427 221.805C721.04 222.238 720.562 222.575 719.994 222.815C719.426 223.056 718.77 223.176 718.025 223.176C717.281 223.176 716.622 223.056 716.048 222.815C715.474 222.575 714.993 222.238 714.606 221.805C714.22 221.365 713.927 220.853 713.728 220.267C713.528 219.675 713.429 219.033 713.429 218.342ZM716.391 218.157V218.342C716.391 218.699 716.417 219.033 716.47 219.344C716.522 219.654 716.61 219.927 716.733 220.161C716.856 220.39 717.023 220.568 717.234 220.697C717.445 220.826 717.709 220.891 718.025 220.891C718.336 220.891 718.594 220.826 718.799 220.697C719.01 220.568 719.177 220.39 719.3 220.161C719.423 219.927 719.511 219.654 719.563 219.344C719.616 219.033 719.643 218.699 719.643 218.342V218.157C719.643 217.812 719.616 217.486 719.563 217.182C719.511 216.871 719.423 216.599 719.3 216.364C719.177 216.124 719.01 215.937 718.799 215.802C718.588 215.667 718.324 215.6 718.008 215.6C717.697 215.6 717.437 215.667 717.226 215.802C717.021 215.937 716.856 216.124 716.733 216.364C716.61 216.599 716.522 216.871 716.47 217.182C716.417 217.486 716.391 217.812 716.391 218.157ZM726.832 215.521V223H723.87V213.49H726.647L726.832 215.521ZM726.48 217.92L725.786 217.938C725.786 217.211 725.874 216.563 726.05 215.995C726.226 215.421 726.475 214.935 726.797 214.536C727.119 214.138 727.503 213.836 727.948 213.631C728.399 213.42 728.9 213.314 729.451 213.314C729.891 213.314 730.292 213.379 730.655 213.508C731.024 213.637 731.341 213.845 731.604 214.132C731.874 214.419 732.079 214.8 732.22 215.274C732.366 215.743 732.439 216.323 732.439 217.015V223H729.46V217.006C729.46 216.625 729.407 216.335 729.302 216.136C729.196 215.931 729.044 215.79 728.845 215.714C728.646 215.638 728.402 215.6 728.115 215.6C727.811 215.6 727.553 215.658 727.342 215.775C727.131 215.893 726.961 216.057 726.832 216.268C726.709 216.473 726.618 216.716 726.56 216.997C726.507 217.278 726.48 217.586 726.48 217.92ZM740.06 213.49H742.749V222.631C742.749 223.51 742.547 224.254 742.143 224.863C741.738 225.479 741.173 225.944 740.446 226.261C739.726 226.583 738.882 226.744 737.915 226.744C737.487 226.744 737.051 226.688 736.605 226.577C736.16 226.472 735.744 226.313 735.357 226.103C734.971 225.892 734.646 225.631 734.382 225.32L735.621 223.58C735.861 223.85 736.163 224.078 736.526 224.266C736.89 224.459 737.317 224.556 737.81 224.556C738.237 224.556 738.595 224.479 738.882 224.327C739.175 224.175 739.397 223.952 739.55 223.659C739.702 223.372 739.778 223.023 739.778 222.613V215.74L740.06 213.49ZM733.74 218.359V218.175C733.74 217.454 733.828 216.798 734.004 216.206C734.186 215.608 734.443 215.096 734.777 214.668C735.117 214.234 735.527 213.9 736.008 213.666C736.488 213.432 737.03 213.314 737.634 213.314C738.284 213.314 738.817 213.44 739.233 213.692C739.655 213.938 739.992 214.284 740.244 214.729C740.502 215.175 740.701 215.696 740.842 216.294C740.988 216.886 741.111 217.524 741.211 218.21V218.43C741.111 219.074 740.974 219.684 740.798 220.258C740.628 220.826 740.405 221.33 740.13 221.77C739.854 222.209 739.509 222.555 739.093 222.807C738.683 223.053 738.19 223.176 737.616 223.176C737.019 223.176 736.479 223.056 735.999 222.815C735.524 222.575 735.117 222.238 734.777 221.805C734.443 221.371 734.186 220.861 734.004 220.275C733.828 219.689 733.74 219.051 733.74 218.359ZM736.702 218.175V218.359C736.702 218.717 736.734 219.048 736.799 219.353C736.869 219.657 736.975 219.927 737.115 220.161C737.256 220.39 737.429 220.568 737.634 220.697C737.845 220.826 738.091 220.891 738.372 220.891C738.8 220.891 739.146 220.8 739.409 220.618C739.673 220.437 739.863 220.179 739.98 219.845C740.098 219.511 740.147 219.118 740.13 218.667V217.973C740.142 217.586 740.115 217.246 740.051 216.953C739.986 216.654 739.884 216.405 739.743 216.206C739.608 216.007 739.427 215.857 739.198 215.758C738.976 215.652 738.706 215.6 738.39 215.6C738.114 215.6 737.871 215.664 737.66 215.793C737.449 215.922 737.273 216.104 737.133 216.338C736.992 216.566 736.884 216.839 736.808 217.155C736.737 217.466 736.702 217.806 736.702 218.175ZM744.085 218.342V218.157C744.085 217.46 744.185 216.818 744.384 216.232C744.583 215.641 744.876 215.128 745.263 214.694C745.649 214.261 746.127 213.924 746.695 213.684C747.264 213.438 747.92 213.314 748.664 213.314C749.414 213.314 750.073 213.438 750.642 213.684C751.216 213.924 751.696 214.261 752.083 214.694C752.47 215.128 752.763 215.641 752.962 216.232C753.161 216.818 753.261 217.46 753.261 218.157V218.342C753.261 219.033 753.161 219.675 752.962 220.267C752.763 220.853 752.47 221.365 752.083 221.805C751.696 222.238 751.219 222.575 750.65 222.815C750.082 223.056 749.426 223.176 748.682 223.176C747.938 223.176 747.278 223.056 746.704 222.815C746.13 222.575 745.649 222.238 745.263 221.805C744.876 221.365 744.583 220.853 744.384 220.267C744.185 219.675 744.085 219.033 744.085 218.342ZM747.047 218.157V218.342C747.047 218.699 747.073 219.033 747.126 219.344C747.179 219.654 747.267 219.927 747.39 220.161C747.513 220.39 747.68 220.568 747.891 220.697C748.102 220.826 748.365 220.891 748.682 220.891C748.992 220.891 749.25 220.826 749.455 220.697C749.666 220.568 749.833 220.39 749.956 220.161C750.079 219.927 750.167 219.654 750.22 219.344C750.272 219.033 750.299 218.699 750.299 218.342V218.157C750.299 217.812 750.272 217.486 750.22 217.182C750.167 216.871 750.079 216.599 749.956 216.364C749.833 216.124 749.666 215.937 749.455 215.802C749.244 215.667 748.98 215.6 748.664 215.6C748.354 215.6 748.093 215.667 747.882 215.802C747.677 215.937 747.513 216.124 747.39 216.364C747.267 216.599 747.179 216.871 747.126 217.182C747.073 217.486 747.047 217.812 747.047 218.157ZM758.877 223H756.038L756.056 220.627H758.877C759.463 220.627 759.958 220.486 760.362 220.205C760.772 219.924 761.083 219.505 761.294 218.948C761.511 218.386 761.619 217.694 761.619 216.874V216.32C761.619 215.705 761.558 215.166 761.435 214.703C761.317 214.234 761.142 213.845 760.907 213.534C760.673 213.218 760.38 212.98 760.028 212.822C759.683 212.664 759.284 212.585 758.833 212.585H755.985V210.203H758.833C759.7 210.203 760.494 210.353 761.215 210.651C761.941 210.944 762.568 211.366 763.096 211.917C763.629 212.462 764.039 213.109 764.326 213.859C764.619 214.604 764.766 215.43 764.766 216.338V216.874C764.766 217.776 764.619 218.603 764.326 219.353C764.039 220.103 763.632 220.75 763.104 221.295C762.577 221.84 761.953 222.262 761.232 222.561C760.518 222.854 759.732 223 758.877 223ZM757.805 210.203V223H754.72V210.203H757.805ZM766.26 209.5H769.222V220.662L768.914 223H766.26V209.5ZM775.058 218.14V218.324C775.058 219.045 774.984 219.701 774.838 220.293C774.691 220.885 774.466 221.397 774.161 221.831C773.856 222.259 773.473 222.59 773.01 222.824C772.547 223.059 771.999 223.176 771.366 223.176C770.792 223.176 770.3 223.053 769.89 222.807C769.479 222.555 769.137 222.209 768.861 221.77C768.586 221.324 768.363 220.812 768.193 220.231C768.023 219.646 767.889 219.019 767.789 218.351V218.131C767.889 217.469 768.023 216.848 768.193 216.268C768.363 215.682 768.586 215.169 768.861 214.729C769.137 214.284 769.477 213.938 769.881 213.692C770.291 213.44 770.78 213.314 771.349 213.314C771.987 213.314 772.538 213.435 773.001 213.675C773.47 213.915 773.856 214.252 774.161 214.686C774.466 215.119 774.691 215.629 774.838 216.215C774.984 216.801 775.058 217.442 775.058 218.14ZM772.096 218.324V218.14C772.096 217.794 772.075 217.469 772.034 217.164C771.993 216.859 771.92 216.59 771.814 216.355C771.709 216.121 771.56 215.937 771.366 215.802C771.173 215.667 770.921 215.6 770.61 215.6C770.294 215.6 770.027 215.652 769.811 215.758C769.6 215.863 769.43 216.016 769.301 216.215C769.178 216.408 769.09 216.648 769.037 216.936C768.984 217.217 768.961 217.536 768.967 217.894V218.588C768.955 219.074 768.999 219.49 769.099 219.836C769.198 220.182 769.371 220.445 769.617 220.627C769.863 220.809 770.2 220.899 770.628 220.899C770.944 220.899 771.199 220.838 771.393 220.715C771.592 220.592 771.741 220.416 771.841 220.188C771.94 219.959 772.008 219.687 772.043 219.37C772.078 219.054 772.096 218.705 772.096 218.324Z" fill="white"/>
<g clip-path="url(#clip0_3_61)">
<path d="M1066 0H1348C1356.28 0 1363 6.71573 1363 15V282C1363 290.284 1356.28 297 1348 297H1066V0Z" fill="white"/>
<g clip-path="url(#clip1_3_61)">
<path d="M1028 -84C1151.09 -84 1274.18 -84 1401 -84C1401 69.45 1401 222.9 1401 381C1277.91 381 1154.82 381 1028 381C1028 227.55 1028 74.1 1028 -84Z" fill="#FEFCF6"/>
<path d="M1182.45 59.4961C1182.93 60.4043 1182.93 60.4043 1183.02 61.8801C1182.85 65.1191 1181.72 66.863 1180.48 68.9108C1179.07 70.976 1177.5 72.5841 1175.95 74.2544C1175.61 74.6223 1175.27 74.9907 1174.94 75.3595C1174.77 75.5398 1174.6 75.7202 1174.43 75.906C1174.1 76.2719 1173.77 76.6425 1173.44 77.018C1172.67 77.8866 1171.97 78.592 1171.12 79.1809C1169.84 80.1853 1169.11 81.0752 1168.55 83.4443C1167.88 87.0624 1167.44 90.7917 1167.01 94.5275C1166.76 96.6728 1166.49 98.811 1166.23 100.948C1166.08 102.083 1165.95 103.22 1165.82 104.359C1165.4 107.799 1165.07 109.511 1163.46 111.445C1163.22 111.664 1163.22 111.664 1162.97 111.888C1162.81 112.041 1162.65 112.195 1162.48 112.353C1162.33 112.443 1162.19 112.533 1162.05 112.626C1161.89 112.476 1161.73 112.326 1161.56 112.172C1161.43 110.792 1161.33 109.442 1161.25 108.051C1161.21 107.427 1161.21 107.427 1161.17 106.79C1161.11 105.906 1161.06 105.023 1161.01 104.139C1160.92 102.791 1160.84 101.444 1160.75 100.096C1160.7 99.2383 1160.65 98.3801 1160.6 97.5218C1160.56 96.9192 1160.56 96.9192 1160.52 96.3045C1160.4 94.316 1160.32 92.38 1160.35 90.375C1159.11 91.1858 1157.88 92.0017 1156.65 92.8223C1156.23 93.1007 1155.81 93.3778 1155.39 93.6534C1154.79 94.0499 1154.19 94.4514 1153.59 94.8539C1153.4 94.976 1153.21 95.0981 1153.02 95.2239C1152.14 95.8198 1151.49 96.3099 1150.88 97.6406C1150.68 98.5066 1150.68 98.5066 1150.57 99.4659C1150.5 99.994 1150.5 99.994 1150.43 100.533C1150.33 101.267 1150.24 102.001 1150.14 102.736C1149.83 105.001 1149.5 106.73 1148.69 108.539C1148.45 108.539 1148.21 108.539 1147.96 108.539C1147.34 105.536 1146.84 102.617 1146.51 99.457C1145.35 100.183 1144.44 101.371 1143.45 102.664C1143.28 102.888 1143.11 103.113 1142.93 103.344C1138.88 108.643 1135.01 114.38 1131.45 120.8C1131.31 121.056 1131.16 121.312 1131.02 121.575C1129.17 124.92 1127.43 128.321 1125.86 132.152C1125.71 132.532 1125.71 132.532 1125.55 132.92C1119.56 147.542 1115.07 165.824 1116.27 184.64C1116.88 192.894 1118.36 200.19 1121.25 206.625C1121.39 206.956 1121.53 207.286 1121.67 207.627C1125.71 216.821 1132.53 221.532 1138.66 222.884C1148.55 224.456 1159.44 219.35 1167.39 207.987C1167.55 208.137 1167.71 208.287 1167.87 208.441C1164.71 214.071 1161.43 218.817 1157.68 222.973C1157.53 223.133 1157.39 223.293 1157.25 223.458C1149.8 231.799 1140.23 235.41 1131.69 232.055C1131.38 231.949 1131.07 231.843 1130.75 231.734C1126.73 230.259 1122.8 227.197 1119.55 222.519C1119.32 222.202 1119.1 221.885 1118.87 221.559C1113.42 213.598 1110.22 202.133 1109.35 189.369C1109.29 187.043 1109.29 184.716 1109.29 182.387C1109.29 182.061 1109.29 181.735 1109.29 181.399C1109.29 176.499 1109.42 171.882 1110.08 167.118C1110.12 166.817 1110.16 166.516 1110.2 166.205C1111.76 154.277 1115.19 143.428 1119.31 133.969C1119.49 133.537 1119.68 133.106 1119.87 132.661C1122.44 126.77 1125.32 121.375 1128.54 116.713C1128.72 116.429 1128.9 116.145 1129.09 115.853C1134.11 108.127 1139.77 102.251 1145.53 96.7324C1144.29 94.6375 1143.04 92.8087 1141.63 91.136C1141.47 90.8848 1141.32 90.6337 1141.16 90.375C1141.16 88.5586 1141.16 88.5586 1141.41 88.1045C1143.31 87.9291 1145.02 88.5636 1146.88 89.3151C1147.09 89.3985 1147.31 89.482 1147.53 89.5679C1147.73 89.6464 1147.92 89.7248 1148.12 89.8057C1149.33 90.0491 1150.09 89.3669 1151.06 88.0796C1151.27 87.8004 1151.48 87.5212 1151.7 87.2335C1151.92 86.9403 1152.14 86.647 1152.36 86.3448C1152.58 86.0551 1152.8 85.7653 1153.03 85.4668C1154.33 83.7583 1154.33 83.7583 1155.49 81.7471C1155.33 81.5716 1155.16 81.3962 1155 81.2155C1151.8 77.7858 1148.62 74.3408 1145.46 70.8261C1145.25 70.5959 1145.04 70.3657 1144.83 70.1284C1144.56 69.8261 1144.56 69.8261 1144.28 69.5176C1143.97 69.1855 1143.66 68.873 1143.35 68.5781C1143.72 66.6424 1144.33 65.8624 1145.29 64.9453C1147.14 64.6572 1148.84 65.4089 1150.62 66.2068C1151.15 66.4398 1151.67 66.6673 1152.19 66.8935C1153.3 67.3743 1154.41 67.8625 1155.52 68.3511C1156.81 68.9175 1158.1 69.481 1159.39 70.0391C1159.9 70.2625 1160.41 70.4903 1160.92 70.7183C1161.24 70.8562 1161.56 70.994 1161.87 71.1315C1162.15 71.2526 1162.42 71.3736 1162.71 71.4982C1164.06 71.9382 1165.14 72.0719 1166.33 70.689C1166.64 70.3381 1166.64 70.3381 1166.96 69.9801C1167.17 69.7235 1167.39 69.4669 1167.62 69.2025C1168.09 68.6628 1168.56 68.1236 1169.04 67.5848C1169.28 67.302 1169.53 67.0193 1169.78 66.728C1171.07 65.2513 1172.38 63.8208 1173.69 62.391C1174.05 61.9883 1174.05 61.9883 1174.42 61.5775C1177.21 58.5261 1179.35 56.8056 1182.45 59.4961Z" fill="#1F85D1"/>
<path d="M1150.06 148.65C1153.03 153.538 1155.03 159.752 1155.36 167.23C1155.67 180.386 1151.58 192.38 1147.23 202.084C1147.11 202.356 1146.99 202.627 1146.87 202.907C1145.66 205.617 1144.43 208.288 1143.14 210.854C1142.9 211.329 1142.9 211.329 1142.65 211.813C1141.97 212.751 1141.52 212.964 1140.68 212.982C1140.09 212.308 1140.09 212.308 1139.52 211.28C1139.31 210.9 1139.11 210.521 1138.89 210.13C1133.24 199.262 1126.92 184.204 1127.01 168.245C1127.35 160.399 1129.13 154.304 1132.21 148.968C1137.25 141.073 1144.9 140.783 1150.06 148.65Z" fill="#2086D1"/>
<path d="M1182.45 59.4961C1182.93 60.4043 1182.93 60.4043 1183.02 61.8801C1182.85 65.1191 1181.72 66.863 1180.48 68.9108C1179.07 70.976 1177.5 72.5841 1175.95 74.2544C1175.61 74.6223 1175.27 74.9907 1174.94 75.3595C1174.77 75.5398 1174.6 75.7202 1174.43 75.906C1174.1 76.2719 1173.77 76.6425 1173.44 77.018C1172.67 77.8866 1171.97 78.592 1171.12 79.1809C1169.84 80.1853 1169.11 81.0752 1168.55 83.4443C1167.88 87.0624 1167.44 90.7917 1167.01 94.5275C1166.76 96.6728 1166.49 98.811 1166.23 100.948C1166.08 102.083 1165.95 103.22 1165.82 104.359C1165.4 107.799 1165.07 109.511 1163.46 111.445C1163.22 111.664 1163.22 111.664 1162.97 111.888C1162.73 112.118 1162.73 112.118 1162.48 112.353C1162.33 112.443 1162.19 112.533 1162.05 112.626C1161.89 112.476 1161.73 112.326 1161.56 112.172C1161.43 110.792 1161.33 109.442 1161.25 108.051C1161.21 107.427 1161.21 107.427 1161.17 106.79C1161.11 105.906 1161.06 105.023 1161.01 104.139C1160.92 102.791 1160.84 101.444 1160.75 100.096C1160.7 99.2383 1160.65 98.38 1160.6 97.5218C1160.56 96.9192 1160.56 96.9192 1160.52 96.3045C1160.4 94.316 1160.32 92.38 1160.35 90.375C1159.11 91.1858 1157.88 92.0017 1156.65 92.8223C1156.23 93.1007 1155.81 93.3778 1155.39 93.6534C1154.79 94.0499 1154.19 94.4514 1153.59 94.8539C1153.4 94.976 1153.21 95.0981 1153.02 95.2239C1152.14 95.8198 1151.49 96.3099 1150.88 97.6406C1150.68 98.5066 1150.68 98.5066 1150.57 99.4659C1150.53 99.818 1150.48 100.17 1150.43 100.533C1150.33 101.267 1150.24 102.001 1150.14 102.736C1149.83 105.001 1149.5 106.73 1148.69 108.539C1148.45 108.539 1148.21 108.539 1147.96 108.539C1146.48 101.285 1146.48 101.285 1146.18 97.5537C1146.06 96.6667 1146.06 96.6667 1145.61 96.2889C1145.33 96.0589 1145.33 96.0589 1145.05 95.8242C1144.56 95.1764 1144.08 94.5125 1143.61 93.8375C1143.36 93.4875 1143.11 93.1374 1142.86 92.7768C1142.2 91.8385 1141.56 90.8864 1140.92 89.9209C1141.08 89.3215 1141.24 88.7221 1141.41 88.1045C1143.32 87.9842 1145.02 88.5612 1146.88 89.3151C1147.09 89.3985 1147.31 89.4819 1147.53 89.5679C1147.73 89.6464 1147.92 89.7248 1148.12 89.8057C1149.33 90.0491 1150.09 89.3669 1151.06 88.0796C1151.27 87.8004 1151.48 87.5212 1151.7 87.2335C1152.03 86.7936 1152.03 86.7936 1152.36 86.3448C1152.58 86.0551 1152.8 85.7653 1153.03 85.4668C1154.33 83.7583 1154.33 83.7583 1155.49 81.7471C1155.25 81.4839 1155.25 81.4839 1155 81.2155C1151.8 77.7858 1148.62 74.3408 1145.46 70.8261C1145.15 70.4808 1145.15 70.4808 1144.83 70.1284C1144.65 69.9269 1144.47 69.7253 1144.28 69.5176C1143.97 69.1855 1143.66 68.873 1143.35 68.5781C1143.72 66.6424 1144.33 65.8624 1145.29 64.9453C1147.14 64.6572 1148.84 65.4089 1150.62 66.2068C1151.15 66.4398 1151.67 66.6673 1152.19 66.8935C1153.3 67.3743 1154.41 67.8625 1155.52 68.3511C1156.81 68.9175 1158.1 69.481 1159.39 70.0391C1159.9 70.2625 1160.41 70.4903 1160.92 70.7183C1161.24 70.8562 1161.56 70.994 1161.87 71.1315C1162.15 71.2526 1162.42 71.3736 1162.71 71.4982C1164.06 71.9382 1165.14 72.0719 1166.33 70.689C1166.54 70.4551 1166.75 70.2211 1166.96 69.9801C1167.17 69.7235 1167.39 69.4669 1167.62 69.2025C1168.09 68.6628 1168.56 68.1236 1169.04 67.5848C1169.28 67.302 1169.53 67.0193 1169.78 66.728C1171.07 65.2513 1172.38 63.8208 1173.69 62.391C1173.93 62.1225 1174.17 61.8541 1174.42 61.5775C1177.21 58.5261 1179.35 56.8056 1182.45 59.4961Z" fill="#154169"/>
<path d="M1209.01 135.885C1211.59 139.182 1213.06 143.757 1213.77 149.408C1214.13 155.539 1213.73 161.594 1211.73 166.669C1211.61 166.967 1211.48 167.265 1211.34 167.572C1211.22 167.856 1211.1 168.14 1210.97 168.433C1209.05 172.452 1206 174.557 1203.17 174.966C1199.38 175.138 1196.21 173.157 1193.44 168.23C1191.15 163.606 1190.52 158.223 1190.63 152.076C1190.73 149.681 1190.98 147.564 1191.43 145.321C1191.49 145.007 1191.55 144.693 1191.62 144.369C1192.79 139.314 1195.09 135.945 1197.73 133.855C1201.49 131.358 1205.58 132.109 1209.01 135.885Z" fill="#164269"/>
<path d="M1313.26 137.914C1315.22 141.309 1316.62 146.308 1316.78 151.338C1316.83 157.86 1316.22 163.907 1313.76 168.849C1311.12 173.333 1307.77 175.242 1304.22 175.01C1300.83 174.318 1297.98 171.776 1295.78 166.843C1293.67 161.352 1293.37 155.515 1293.67 148.954C1293.86 147.118 1294.16 145.601 1294.64 143.959C1294.74 143.603 1294.84 143.247 1294.95 142.88C1296.52 138.028 1298.94 134.869 1301.81 133.146C1305.92 131.349 1310.02 132.911 1313.26 137.914Z" fill="#164269"/>
<path d="M1217.66 133.515C1219.5 133.515 1221.34 133.515 1223.24 133.515C1223.25 134.268 1223.25 135.022 1223.25 135.799C1223.27 138.601 1223.29 141.403 1223.31 144.205C1223.31 145.416 1223.32 146.628 1223.33 147.84C1223.33 149.584 1223.35 151.327 1223.36 153.071C1223.36 153.611 1223.36 154.151 1223.37 154.707C1223.4 158.268 1223.54 160.667 1224.82 163.429C1225.94 165.21 1227.1 165 1228.51 164.974C1229.6 164.802 1230.4 164.319 1231.26 163.031C1232.18 160.857 1232.5 159.195 1232.52 156.455C1232.52 155.946 1232.53 155.437 1232.53 154.913C1232.54 154.089 1232.54 154.089 1232.55 153.249C1232.55 152.686 1232.56 152.124 1232.56 151.544C1232.58 150.05 1232.59 148.556 1232.6 147.063C1232.61 145.538 1232.63 144.013 1232.64 142.488C1232.66 139.497 1232.69 136.506 1232.71 133.515C1234.64 133.515 1236.56 133.515 1238.54 133.515C1238.54 146.852 1238.54 160.189 1238.54 173.93C1236.7 173.93 1234.85 173.93 1232.96 173.93C1232.96 172.131 1232.96 170.333 1232.96 168.48C1232.8 168.48 1232.64 168.48 1232.47 168.48C1232.4 168.752 1232.34 169.024 1232.27 169.304C1231.44 172.174 1229.92 173.546 1228.32 174.524C1226.06 175.532 1223.73 174.878 1221.68 172.906C1219.74 170.647 1218.2 167.733 1217.66 163.485C1217.56 161.181 1217.57 158.884 1217.59 156.574C1217.59 155.908 1217.59 155.241 1217.59 154.574C1217.59 152.83 1217.6 151.087 1217.61 149.343C1217.61 147.559 1217.62 145.775 1217.62 143.991C1217.63 140.499 1217.64 137.007 1217.66 133.515Z" fill="#154168"/>
<path d="M1169.57 119.438C1176.63 119.438 1183.68 119.438 1190.94 119.438C1190.94 122.584 1190.94 125.731 1190.94 128.974C1188.46 128.974 1185.98 128.974 1183.42 128.974C1183.42 143.809 1183.42 158.645 1183.42 173.93C1181.49 173.93 1179.57 173.93 1177.59 173.93C1177.59 159.094 1177.59 144.259 1177.59 128.974C1174.94 128.974 1172.3 128.974 1169.57 128.974C1169.57 125.827 1169.57 122.68 1169.57 119.438Z" fill="#164169"/>
<path d="M1270.6 133.515C1272.52 133.515 1274.44 133.515 1276.42 133.515C1278.25 142.564 1280.02 151.656 1281.77 160.761C1282.3 159.768 1282.41 159.182 1282.65 157.87C1282.72 157.458 1282.8 157.047 1282.87 156.624C1282.95 156.177 1283.03 155.731 1283.12 155.271C1283.24 154.58 1283.24 154.58 1283.37 153.875C1283.63 152.396 1283.9 150.917 1284.16 149.437C1284.43 147.971 1284.69 146.507 1284.96 145.042C1285.12 144.13 1285.28 143.219 1285.45 142.306C1285.98 139.356 1286.54 136.441 1287.11 133.515C1289.03 133.515 1290.96 133.515 1292.94 133.515C1292.77 135.072 1292.62 136.254 1292.32 137.687C1292.21 138.231 1292.21 138.231 1292.09 138.786C1292.01 139.177 1291.93 139.567 1291.84 139.97C1291.76 140.384 1291.67 140.798 1291.58 141.225C1291.29 142.582 1291.01 143.937 1290.72 145.293C1290.52 146.229 1290.33 147.164 1290.13 148.1C1289.63 150.491 1289.12 152.882 1288.62 155.272C1288.24 157.06 1287.86 158.848 1287.49 160.637C1286.55 165.069 1285.62 169.5 1284.68 173.93C1282.84 173.93 1280.99 173.93 1279.1 173.93C1278.15 170.168 1277.33 166.354 1276.53 162.478C1276.16 160.682 1275.79 158.888 1275.42 157.094C1275.34 156.725 1275.27 156.356 1275.19 155.975C1274.64 153.341 1274.08 150.715 1273.52 148.094C1273.4 147.552 1273.4 147.552 1273.28 146.998C1272.91 145.263 1272.54 143.528 1272.16 141.795C1272.02 141.165 1271.89 140.535 1271.75 139.906C1271.63 139.361 1271.52 138.815 1271.39 138.254C1271.08 136.703 1270.84 135.107 1270.6 133.515Z" fill="#164269"/>
<path d="M1256.31 132.55C1256.57 132.549 1256.82 132.547 1257.08 132.546C1257.73 132.606 1257.73 132.606 1258.21 133.061C1258.14 134.215 1258.06 135.369 1257.98 136.523C1257.96 136.847 1257.94 137.17 1257.92 137.504C1257.8 139.362 1257.66 141.206 1257.48 143.051C1257.23 143.057 1256.98 143.064 1256.72 143.07C1254.69 143.176 1252.82 143.302 1251.17 145.775C1250.17 147.994 1249.69 150.153 1249.66 153.051C1249.66 153.515 1249.65 153.978 1249.65 154.456C1249.64 155.205 1249.64 155.205 1249.63 155.97C1249.63 156.482 1249.62 156.994 1249.62 157.521C1249.6 159.159 1249.59 160.797 1249.57 162.435C1249.56 163.545 1249.55 164.654 1249.54 165.764C1249.52 168.486 1249.49 171.208 1249.47 173.93C1247.55 173.93 1245.62 173.93 1243.64 173.93C1243.64 160.593 1243.64 147.256 1243.64 133.515C1245.56 133.515 1247.49 133.515 1249.47 133.515C1249.59 136.662 1249.59 136.662 1249.71 139.872C1249.9 139.254 1250.09 138.636 1250.29 137.999C1251.23 135.347 1252.53 133.594 1254.19 132.766C1254.9 132.584 1255.59 132.546 1256.31 132.55Z" fill="#16436A"/>
<path d="M1145 157.728C1146.53 159.896 1147.84 162.598 1148.21 166.21C1148.47 170.28 1148.1 174.043 1146.77 177.359C1145.18 180.573 1143.53 182.119 1141.19 182.387C1139.07 182.234 1137.24 180.486 1135.81 177.591C1134.26 173.824 1134.09 170.478 1134.36 165.756C1134.93 162.205 1136.13 159.512 1137.74 157.438C1139.94 155.228 1142.86 155.375 1145 157.728Z" fill="#FBF8F2"/>
<path d="M1261.85 133.515C1263.78 133.515 1265.7 133.515 1267.68 133.515C1267.68 146.852 1267.68 160.189 1267.68 173.93C1265.76 173.93 1263.84 173.93 1261.85 173.93C1261.85 160.593 1261.85 147.256 1261.85 133.515Z" fill="#15436A"/>
<path d="M1204.94 142.559C1205.44 143.106 1205.83 143.667 1206.24 144.413C1206.42 144.733 1206.42 144.733 1206.6 145.059C1208.13 148.175 1208.31 151.021 1208.25 155.113C1208.09 158.831 1207.53 161.104 1206.04 163.638C1204.5 165.859 1202.81 166.199 1200.9 165.756C1198.97 164.843 1197.75 162.617 1196.75 159.471C1196.02 156.461 1196 152.73 1196.46 149.579C1197.14 146.527 1198.12 143.854 1199.78 142.46C1201.39 141.661 1203.36 141.528 1204.94 142.559Z" fill="#FBF8F3"/>
<path d="M1308.13 142.852C1309.51 144.448 1310.54 146.812 1311.03 149.699C1311.46 153.672 1311.34 157.73 1310.18 161.215C1308.96 163.884 1307.57 165.407 1305.72 165.914C1303.88 166.123 1302.37 165.006 1300.99 162.755C1299.44 159.634 1299.11 156.406 1299.17 152.218C1299.36 148.916 1300.18 146.256 1301.44 143.959C1303.2 141.323 1306.11 141.168 1308.13 142.852Z" fill="#FBF9F4"/>
<path d="M1266.27 116.344C1267.18 117.444 1267.77 118.382 1268.06 120.397C1268.26 122.733 1268.18 124.251 1267.44 126.249C1266.36 128.108 1265.53 128.685 1264.05 128.649C1263.04 128.386 1262.38 127.202 1261.66 125.937C1261.2 124.272 1261.07 122.665 1261.12 120.8C1261.48 118.832 1262.1 117.309 1263.07 116.259C1264.21 115.547 1265.14 115.555 1266.27 116.344Z" fill="#174269"/>
<path d="M1243.64 133.515C1245.48 133.515 1247.33 133.515 1249.23 133.515C1249.23 135.013 1249.23 136.512 1249.23 138.056C1249.15 138.056 1249.07 138.056 1248.98 138.056C1248.98 136.707 1248.98 135.358 1248.98 133.969C1247.38 133.969 1245.78 133.969 1244.13 133.969C1244.13 146.856 1244.13 159.744 1244.13 173.021C1245.73 173.021 1247.33 173.021 1248.98 173.021C1248.98 171.627 1248.97 170.232 1248.97 168.794C1248.96 167.433 1248.96 166.071 1248.96 164.709C1248.95 163.768 1248.95 162.827 1248.95 161.886C1248.94 160.528 1248.94 159.169 1248.94 157.811C1248.93 157.187 1248.93 157.187 1248.93 156.55C1248.93 153.883 1249.11 151.539 1249.47 148.954C1249.69 150.378 1249.73 151.621 1249.72 153.103C1249.71 153.798 1249.71 153.798 1249.7 154.507C1249.69 155.253 1249.69 155.253 1249.68 156.014C1249.68 156.525 1249.67 157.037 1249.66 157.564C1249.65 159.197 1249.63 160.83 1249.61 162.464C1249.59 163.571 1249.58 164.679 1249.57 165.786C1249.54 168.501 1249.5 171.215 1249.47 173.93C1247.55 173.93 1245.62 173.93 1243.64 173.93C1243.64 160.593 1243.64 147.256 1243.64 133.515Z" fill="#0D345E"/>
<path d="M1261.85 133.515C1263.78 133.515 1265.7 133.515 1267.68 133.515C1267.68 146.852 1267.68 160.189 1267.68 173.93C1265.76 173.93 1263.84 173.93 1261.85 173.93C1261.85 173.63 1261.85 173.33 1261.85 173.021C1263.62 173.021 1265.38 173.021 1267.2 173.021C1267.2 160.134 1267.2 147.247 1267.2 133.969C1264.67 134.194 1264.67 134.194 1262.1 134.423C1262.02 134.123 1261.94 133.823 1261.85 133.515Z" fill="#27456B"/>
<path d="M1238.3 133.515C1238.38 133.515 1238.46 133.515 1238.54 133.515C1238.54 146.852 1238.54 160.189 1238.54 173.93C1236.7 173.93 1234.85 173.93 1232.96 173.93C1232.96 173.63 1232.96 173.33 1232.96 173.021C1234.64 173.021 1236.32 173.021 1238.06 173.021C1238.05 171.806 1238.05 170.59 1238.05 169.337C1238.03 157.389 1238.12 145.458 1238.3 133.515Z" fill="#1F466B"/>
<path d="M1270.6 133.515C1272.52 133.515 1274.44 133.515 1276.42 133.515C1276.34 133.964 1276.26 134.414 1276.18 134.877C1274.58 134.877 1272.98 134.877 1271.32 134.877C1271.24 135.327 1271.16 135.776 1271.08 136.239C1270.92 135.34 1270.76 134.441 1270.6 133.515Z" fill="#052C58"/>
<path d="M1142.86 99.457C1143.02 99.6069 1143.18 99.7567 1143.35 99.9111C1142.96 100.347 1142.58 100.782 1142.19 101.217C1141.87 101.58 1141.87 101.58 1141.55 101.951C1140.7 102.88 1139.94 103.612 1138.98 103.998C1139.72 102.468 1140.45 101.589 1141.44 100.677C1141.82 100.315 1141.82 100.315 1142.21 99.9448C1142.43 99.7839 1142.64 99.6229 1142.86 99.457Z" fill="#1478CD"/>
<path d="M1261.12 123.524C1261.29 123.974 1261.45 124.424 1261.61 124.887C1262.2 126.345 1262.74 127.494 1263.55 128.52C1262.58 128.52 1262.58 128.52 1261.81 127.526C1261.13 126.25 1260.91 125.749 1260.88 123.979C1260.96 123.829 1261.04 123.679 1261.12 123.524Z" fill="#F4F6F5"/>
<path d="M1152.82 95.8242C1152.63 96.0958 1152.44 96.3674 1152.24 96.6473C1151.57 97.6001 1151.57 97.6001 1151.12 99.0029C1150.96 98.8531 1150.8 98.7032 1150.63 98.5488C1150.8 97.4703 1150.8 97.4703 1151.12 96.2783C1152.16 95.2079 1152.16 95.2079 1152.82 95.8242Z" fill="#EDF0EF"/>
<path d="M1152.58 78.5684C1153.74 79.3139 1154.71 80.5053 1155.73 81.7471C1155.57 82.0468 1155.41 82.3465 1155.25 82.6553C1155.09 82.5054 1154.93 82.3556 1154.76 82.2012C1154.76 81.9015 1154.76 81.6018 1154.76 81.293C1154.58 81.1618 1154.4 81.0307 1154.22 80.8956C1153.65 80.4651 1153.12 79.9995 1152.58 79.4766C1152.58 79.1769 1152.58 78.8771 1152.58 78.5684Z" fill="#EDF0F1"/>
<path d="M1129.99 153.495C1130.17 154.29 1130.17 154.29 1130.24 155.312C1129.92 155.937 1129.6 156.54 1129.26 157.128C1129.01 158.022 1128.76 158.928 1128.54 159.853C1128.29 158.49 1128.29 158.49 1128.58 157.38C1128.78 156.777 1128.78 156.777 1128.99 156.163C1129.13 155.759 1129.26 155.355 1129.4 154.939C1129.75 153.949 1129.75 153.949 1129.99 153.495Z" fill="#1177CC"/>
<path d="M1253.35 143.505C1253.35 143.805 1253.35 144.104 1253.35 144.413C1252.79 144.713 1252.23 145.012 1251.65 145.321C1252.58 143.505 1252.58 143.505 1253.35 143.505ZM1251.17 145.321C1251.33 145.321 1251.49 145.321 1251.65 145.321C1251.49 145.921 1251.33 146.52 1251.17 147.138C1251.01 146.838 1250.85 146.538 1250.68 146.229C1250.84 145.93 1251 145.63 1251.17 145.321Z" fill="#E6EBED"/>
<path d="M1146.02 99.0029C1146.26 99.1528 1146.5 99.3026 1146.75 99.457C1146.75 99.9066 1146.75 100.356 1146.75 100.819C1145.67 101.044 1145.67 101.044 1144.56 101.273C1145.29 99.9111 1145.29 99.9111 1146.02 99.0029Z" fill="#E9EFF1"/>
<path d="M1145.78 96.7324C1146.02 97.3318 1146.26 97.9312 1146.51 98.5488C1146.18 98.9984 1145.86 99.4479 1145.53 99.9111C1145.37 99.7613 1145.21 99.6114 1145.05 99.457C1145.05 99.1573 1145.05 98.8576 1145.05 98.5488C1145.21 98.399 1145.37 98.2491 1145.53 98.0947C1145.45 97.795 1145.37 97.4953 1145.29 97.1865C1145.45 97.0367 1145.61 96.8868 1145.78 96.7324Z" fill="#348DD1"/>
<path d="M1231.74 160.761C1231.82 161.21 1231.9 161.66 1231.98 162.123C1231.26 163.247 1231.26 163.247 1230.53 164.394C1230.53 163.031 1230.53 163.031 1231.13 161.811C1231.33 161.464 1231.54 161.118 1231.74 160.761Z" fill="#E5E9EB"/>
</g>
</g>
<defs>
<clipPath id="clip0_3_61">
<path d="M1066 0H1348C1356.28 0 1363 6.71573 1363 15V282C1363 290.284 1356.28 297 1348 297H1066V0Z" fill="white"/>
</clipPath>
<clipPath id="clip1_3_61">
<rect width="373" height="465" fill="white" transform="translate(1028 -84)"/>
</clipPath>
</defs>
</svg>
